<?xml version="1.0" encoding="UTF-8"?>
<svg width="20px" height="10px" viewBox="0 0 20 10" version="1.1" xmlns="http://www.w3.org/2000/svg" xmlns:xlink="http://www.w3.org/1999/xlink">
    <!-- Generator: Sketch 52.6 (67491) - http://www.bohemiancoding.com/sketch -->
    <title>Group 6</title>
    <desc>Created with Sketch.</desc>
    <defs>
        <polygon id="path-1" points="0 0.036 3.50533333 0.036 3.50533333 1.85418182 0 1.85418182"></polygon>
    </defs>
    <g id="Symbols" stroke="none" stroke-width="1" fill="none" fill-rule="evenodd">
        <g id="Arrow/-Right">
            <g id="Group-6">
                <path d="M19.9118182,4.81466667 L15.6451515,0.548 C15.5506061,0.453454545 15.3966667,0.453454545 15.3021212,0.548 L14.4881818,1.36193939 C14.3936364,1.45648485 14.3936364,1.61042424 14.4881818,1.7049697 L16.860303,4.07709091 L5.6530303,4.07709091 C5.51969697,4.07709091 5.41121212,4.18557576 5.41121212,4.31890909 L5.41121212,5.65406061 C5.41121212,5.78678788 5.51969697,5.89527273 5.6530303,5.89527273 L16.860303,5.89527273 L14.4881818,8.26739394 C14.3936364,8.36254545 14.3936364,8.51587879 14.4881818,8.6110303 L15.3021212,9.42436364 C15.3966667,9.51951515 15.5506061,9.51951515 15.6451515,9.42436364 L19.9118182,5.15769697 C20.0063636,5.06315152 20.0063636,4.90921212 19.9118182,4.81466667" id="Fill-1" fill="#040404"></path>
                <g id="Group-5" transform="translate(0.000000, 4.041212)">
                    <mask id="mask-2" fill="white">
                        <use xlink:href="#path-1"></use>
                    </mask>
                    <g id="Clip-4"></g>
                    <path d="M3.26351515,1.85418182 L0.24230303,1.85418182 C0.108363636,1.85418182 -0.000121212121,1.74569697 -0.000121212121,1.61236364 L-0.000121212121,0.277818182 C-0.000121212121,0.144484848 0.108363636,0.036 0.24230303,0.036 L3.26351515,0.036 C3.39745455,0.036 3.50533333,0.144484848 3.50533333,0.277818182 L3.50533333,1.61236364 C3.50533333,1.74569697 3.39745455,1.85418182 3.26351515,1.85418182" id="Fill-3" fill="#E54C00" mask="url(#mask-2)"></path>
                </g>
            </g>
        </g>
    </g>
</svg>