<?xml version="1.0" encoding="UTF-8"?>
<svg width="21px" height="10px" viewBox="0 0 21 10" version="1.1" xmlns="http://www.w3.org/2000/svg" xmlns:xlink="http://www.w3.org/1999/xlink">
    <!-- Generator: Sketch 52.6 (67491) - http://www.bohemiancoding.com/sketch -->
    <title>Group 2</title>
    <desc>Created with Sketch.</desc>
    <defs>
        <polygon id="path-1" points="0.500121212 4.29721212 4.00545455 4.29721212 4.00545455 6.11539394 0.500121212 6.11539394"></polygon>
    </defs>
    <g id="Symbols" stroke="none" stroke-width="1" fill="none" fill-rule="evenodd">
        <g id="BTN-Small/-Fill" transform="translate(-140.000000, -27.000000)">
            <g id="Group" transform="translate(24.000000, 21.000000)">
                <g id="Group-2" transform="translate(116.000000, 6.000000)">
                    <path d="M20.4119394,5.03466667 L16.1452727,0.768 C16.0507273,0.673454545 15.8967879,0.673454545 15.8022424,0.768 L14.988303,1.58193939 C14.8937576,1.67648485 14.8937576,1.83042424 14.988303,1.9249697 L17.3604242,4.29709091 L6.15315152,4.29709091 C6.01981818,4.29709091 5.91133333,4.40557576 5.91133333,4.53890909 L5.91133333,5.87406061 C5.91133333,6.00678788 6.01981818,6.11527273 6.15315152,6.11527273 L17.3604242,6.11527273 L14.988303,8.48739394 C14.8937576,8.58254545 14.8937576,8.73587879 14.988303,8.8310303 L15.8022424,9.64436364 C15.8967879,9.73951515 16.0507273,9.73951515 16.1452727,9.64436364 L20.4119394,5.37769697 C20.5064848,5.28315152 20.5064848,5.12921212 20.4119394,5.03466667" id="Fill-1" fill="#F2F2F2"></path>
                    <mask id="mask-2" fill="white">
                        <use xlink:href="#path-1"></use>
                    </mask>
                    <g id="Clip-4"></g>
                    <path d="M3.76363636,6.11539394 L0.742424242,6.11539394 C0.608484848,6.11539394 0.5,6.00690909 0.5,5.87357576 L0.5,4.5390303 C0.5,4.40569697 0.608484848,4.29721212 0.742424242,4.29721212 L3.76363636,4.29721212 C3.89757576,4.29721212 4.00545455,4.40569697 4.00545455,4.5390303 L4.00545455,5.87357576 C4.00545455,6.00690909 3.89757576,6.11539394 3.76363636,6.11539394" id="Fill-3" fill="#F2F2F2" mask="url(#mask-2)"></path>
                </g>
            </g>
        </g>
    </g>
</svg>