<?xml version="1.0" encoding="UTF-8"?>
<svg width="393px" height="610px" viewBox="0 0 393 610" version="1.1" xmlns="http://www.w3.org/2000/svg" xmlns:xlink="http://www.w3.org/1999/xlink">
    <!-- Generator: Sketch 53 (72520) - https://sketchapp.com -->
    <title>iphone-empty</title>
    <desc>Created with Sketch.</desc>
    <defs>
        <path d="M315.360017,128.701773 L321.120018,128.701773 C322.511775,128.701773 323.640018,129.830015 323.640018,131.221773 L323.640018,182.341776 C323.640018,183.733533 322.511775,184.861776 321.120018,184.861776 L315.360017,184.861776 C313.96826,184.861776 312.840017,183.733533 312.840017,182.341776 L312.840017,131.221773 C312.840017,129.830015 313.96826,128.701773 315.360017,128.701773 Z M20.1600011,82.9817701 L25.9200014,82.9817701 C27.3117591,82.9817701 28.4400016,84.1100126 28.4400016,85.5017702 L28.4400016,104.941771 C28.4400016,106.333529 27.3117591,107.461771 25.9200014,107.461771 L20.1600011,107.461771 C18.7682435,107.461771 17.640001,106.333529 17.640001,104.941771 L17.640001,85.5017702 C17.640001,84.1100126 18.7682435,82.9817701 20.1600011,82.9817701 Z M20.1600011,128.701773 L25.9200014,128.701773 C27.3117591,128.701773 28.4400016,129.830015 28.4400016,131.221773 L28.4400016,170.101775 C28.4400016,171.493532 27.3117591,172.621775 25.9200014,172.621775 L20.1600011,172.621775 C18.7682435,172.621775 17.640001,171.493532 17.640001,170.101775 L17.640001,131.221773 C17.640001,129.830015 18.7682435,128.701773 20.1600011,128.701773 Z M20.1600011,184.861776 L25.9200014,184.861776 C27.3117591,184.861776 28.4400016,185.990018 28.4400016,187.381776 L28.4400016,226.261778 C28.4400016,227.653536 27.3117591,228.781778 25.9200014,228.781778 L20.1600011,228.781778 C18.7682435,228.781778 17.640001,227.653536 17.640001,226.261778 L17.640001,187.381776 C17.640001,185.990018 18.7682435,184.861776 20.1600011,184.861776 Z" id="path-1"></path>
        <filter x="-24.7%" y="-38.1%" width="149.4%" height="203.7%" filterUnits="objectBoundingBox" id="filter-2">
            <feMorphology radius="1.08000006" operator="dilate" in="SourceAlpha" result="shadowSpreadOuter1"></feMorphology>
            <feOffset dx="0" dy="20" in="shadowSpreadOuter1" result="shadowOffsetOuter1"></feOffset>
            <feGaussianBlur stdDeviation="21.5" in="shadowOffsetOuter1" result="shadowBlurOuter1"></feGaussianBlur>
            <feComposite in="shadowBlurOuter1" in2="SourceAlpha" operator="out" result="shadowBlurOuter1"></feComposite>
            <feColorMatrix values="0 0 0 0 0   0 0 0 0 0   0 0 0 0 0  0 0 0 0.132840806 0" type="matrix" in="shadowBlurOuter1"></feColorMatrix>
        </filter>
        <circle id="path-3" cx="3.24000018" cy="3.24000018" r="3.24000018"></circle>
        <filter x="-30.9%" y="-30.9%" width="161.7%" height="161.7%" filterUnits="objectBoundingBox" id="filter-4">
            <feGaussianBlur stdDeviation="1" in="SourceAlpha" result="shadowBlurInner1"></feGaussianBlur>
            <feOffset dx="-1" dy="-1" in="shadowBlurInner1" result="shadowOffsetInner1"></feOffset>
            <feComposite in="shadowOffsetInner1" in2="SourceAlpha" operator="arithmetic" k2="-1" k3="1" result="shadowInnerInner1"></feComposite>
            <feColorMatrix values="0 0 0 0 0   0 0 0 0 0   0 0 0 0 0  0 0 0 0.344061368 0" type="matrix" in="shadowInnerInner1"></feColorMatrix>
        </filter>
        <rect id="path-5" x="0" y="1.44000008" width="36.000002" height="3.6000002" rx="1.8000001"></rect>
        <filter x="-5.6%" y="-55.6%" width="111.1%" height="211.1%" filterUnits="objectBoundingBox" id="filter-6">
            <feGaussianBlur stdDeviation="1" in="SourceAlpha" result="shadowBlurInner1"></feGaussianBlur>
            <feOffset dx="1" dy="1" in="shadowBlurInner1" result="shadowOffsetInner1"></feOffset>
            <feComposite in="shadowOffsetInner1" in2="SourceAlpha" operator="arithmetic" k2="-1" k3="1" result="shadowInnerInner1"></feComposite>
            <feColorMatrix values="0 0 0 0 0   0 0 0 0 0   0 0 0 0 0  0 0 0 0.344061368 0" type="matrix" in="shadowInnerInner1"></feColorMatrix>
        </filter>
    </defs>
    <g id="CASE----Hoc" stroke="none" stroke-width="1" fill="none" fill-rule="evenodd">
        <g id="Case-Hoc" transform="translate(-607.000000, -8276.000000)">
            <g id="iphone-empty" transform="translate(649.000000, 8275.403112)">
                <g id="Group-4-Copy-2" transform="translate(-16.000000, 0.000000)">
                    <g id="Buttons">
                        <use fill="black" fill-opacity="1" filter="url(#filter-2)" xlink:href="#path-1"></use>
                        <path stroke-opacity="0.04" stroke="#000000" stroke-width="1.08000006" d="M315.360017,128.161773 L321.120018,128.161773 C322.810009,128.161773 324.180018,129.531781 324.180018,131.221773 L324.180018,182.341776 C324.180018,184.031767 322.810009,185.401776 321.120018,185.401776 L315.360017,185.401776 C313.670026,185.401776 312.300017,184.031767 312.300017,182.341776 L312.300017,131.221773 C312.300017,129.531781 313.670026,128.161773 315.360017,128.161773 Z M20.1600011,82.4417701 L25.9200014,82.4417701 C27.6099928,82.4417701 28.9800016,83.8117788 28.9800016,85.5017702 L28.9800016,104.941771 C28.9800016,106.631763 27.6099928,108.001771 25.9200014,108.001771 L20.1600011,108.001771 C18.4700097,108.001771 17.1000009,106.631763 17.1000009,104.941771 L17.1000009,85.5017702 C17.1000009,83.8117788 18.4700097,82.4417701 20.1600011,82.4417701 Z M20.1600011,128.161773 L25.9200014,128.161773 C27.6099928,128.161773 28.9800016,129.531781 28.9800016,131.221773 L28.9800016,170.101775 C28.9800016,171.791766 27.6099928,173.161775 25.9200014,173.161775 L20.1600011,173.161775 C18.4700097,173.161775 17.1000009,171.791766 17.1000009,170.101775 L17.1000009,131.221773 C17.1000009,129.531781 18.4700097,128.161773 20.1600011,128.161773 Z M20.1600011,184.321776 L25.9200014,184.321776 C27.6099928,184.321776 28.9800016,185.691784 28.9800016,187.381776 L28.9800016,226.261778 C28.9800016,227.951769 27.6099928,229.321778 25.9200014,229.321778 L20.1600011,229.321778 C18.4700097,229.321778 17.1000009,227.951769 17.1000009,226.261778 L17.1000009,187.381776 C17.1000009,185.691784 18.4700097,184.321776 20.1600011,184.321776 Z" fill="#F8F8F8" fill-rule="evenodd"></path>
                    </g>
                    <path d="M95.2200052,14.0417663 L66.2400036,14.0417663 C49.8371457,14.0417663 36.540002,27.33891 36.540002,43.7417679 L36.540002,567.181797 C36.540002,583.584655 49.8371457,596.881798 66.2400036,596.881798 L275.040015,596.881798 C291.442873,596.881798 304.740017,583.584655 304.740017,567.181797 L304.740017,43.7417679 C304.740017,27.33891 291.442873,14.0417663 275.040015,14.0417663 L246.060013,14.0417663 L246.060013,26.821767 C246.060013,35.0729016 239.371147,41.7617678 231.120013,41.7617678 L110.160006,41.7617678 C101.908871,41.7617678 95.2200052,35.0729016 95.2200052,26.821767 L95.2200052,14.0417663 Z M69.9099374,1.80176565 L271.370081,1.80176565 C286.13665,1.80176565 292.712194,3.0715618 299.527678,6.71652271 C305.551187,9.93793037 310.283853,14.6705964 313.50526,20.694105 C317.150221,27.5095894 318.420017,34.0851335 318.420017,48.8517018 L318.420017,562.071863 C318.420017,576.838431 317.150221,583.413975 313.50526,590.229459 C310.283853,596.252968 305.551187,600.985634 299.527678,604.207042 C292.712194,607.852003 286.13665,609.121799 271.370081,609.121799 L69.9099374,609.121799 C55.1433691,609.121799 48.567825,607.852003 41.7523406,604.207042 C35.728832,600.985634 30.996166,596.252968 27.7747583,590.229459 C24.1297974,583.413975 22.8600012,576.838431 22.8600012,562.071863 L22.8600012,48.8517018 C22.8600012,34.0851335 24.1297974,27.5095894 27.7747583,20.694105 C30.996166,14.6705964 35.728832,9.93793037 41.7523406,6.71652271 C48.567825,3.0715618 55.1433691,1.80176565 69.9099374,1.80176565 Z" id="screen-frame" stroke-opacity="0.03" stroke="#000000" stroke-width="1.8000001" fill="#F8F8F8"></path>
                    <g id="sensor-camera" opacity="0.6" transform="translate(150.840008, 20.701767)">
                        <g id="Group" opacity="0.75" transform="translate(54.000003, 0.000000)">
                            <g id="Oval">
                                <use fill="#BFC0C5" fill-rule="evenodd" xlink:href="#path-3"></use>
                                <use fill="black" fill-opacity="1" filter="url(#filter-4)" xlink:href="#path-3"></use>
                                <circle stroke-opacity="0.568331069" stroke="#7D7D7D" stroke-width="0.5" cx="3.24000018" cy="3.24000018" r="3.49000018"></circle>
                            </g>
                        </g>
                        <g id="Rectangle-2">
                            <use fill="#BFC0C5" fill-rule="evenodd" xlink:href="#path-5"></use>
                            <use fill="black" fill-opacity="1" filter="url(#filter-6)" xlink:href="#path-5"></use>
                            <rect stroke-opacity="0.568331069" stroke="#7D7D7D" stroke-width="0.5" x="-0.25" y="1.19000008" width="36.500002" height="4.1000002" rx="2.0500001"></rect>
                        </g>
                    </g>
                </g>
            </g>
        </g>
    </g>
</svg>