<?xml version="1.0" encoding="UTF-8"?>
<svg width="292px" height="602px" viewBox="0 0 292 602" version="1.1" xmlns="http://www.w3.org/2000/svg" xmlns:xlink="http://www.w3.org/1999/xlink">
    <!-- Generator: Sketch 53.2 (72643) - https://sketchapp.com -->
    <title>Mask</title>
    <desc>Created with Sketch.</desc>
    <defs>
        <path d="M699.000004,8011 L911.000023,8011 C933.091414,8011 951.000026,8028.90861 951.000026,8051 L951.000026,8573.00005 C951.000026,8595.09144 933.091414,8613.00005 911.000023,8613.00005 L699.000004,8613.00005 C676.908612,8613.00005 659,8595.09144 659,8573.00005 L659,8051 C659,8028.90861 676.908612,8011 699.000004,8011 Z M673.029984,8071.48513 C673.027751,8145.81524 673.026635,8220.14587 673.026635,8294.47703 L673.029984,8294.47703 L673.029984,8373.84497 C673.027193,8428.17127 673.028309,8517.82561 673.033333,8572.1624 C673.033333,8573.94213 673.065149,8575.72186 673.391688,8577.50158 C675.640614,8589.70767 686.424744,8598.55906 699.576693,8598.9528 C702.029915,8599.03155 704.488161,8599.00005 706.943057,8599.00005 L908.343377,8599.00005 C910.183712,8599.00005 912.027397,8599.00005 913.849312,8598.68506 C924.247736,8596.91058 931.412037,8591.40865 935.342216,8582.17927 C936.802427,8578.74582 937.000025,8575.15486 937.000025,8571.51666 C936.988861,8427.04904 936.983279,8247.26229 936.983279,8102.80202 C936.970999,8085.2704 936.970441,8067.7372 936.981605,8050.20243 C936.988279,8048.04861 936.665122,8045.90511 936.022085,8043.83794 C932.580876,8032.80521 922.580438,8025.3776 910.359541,8025.10986 C901.099255,8024.90826 891.832272,8025.04213 882.568637,8025.06103 C880.302965,8025.06576 878.93318,8026.33677 878.769074,8028.45354 C878.692044,8029.44735 878.703766,8030.44746 878.648506,8031.44285 C878.320177,8037.91735 873.362797,8043.35694 866.610135,8044.6522 C865.171693,8044.9357 863.726553,8044.92625 862.278063,8044.92625 C834.152249,8044.92783 806.026435,8044.92783 777.900621,8044.92625 C767.242083,8044.92468 756.58187,8044.97665 745.925007,8044.89633 C738.908624,8044.84435 733.039312,8040.25014 731.528864,8033.82579 C731.13032,8032.12954 731.096829,8030.38919 731.059988,8028.65671 C731.041568,8027.73062 730.802107,8026.89431 730.140658,8026.19029 C729.249795,8025.24373 728.089329,8025.03741 726.80662,8025.04056 C718.158106,8025.04633 709.508475,8025.04843 700.857727,8025.04686 C698.680916,8025.04897 696.510411,8025.267 694.382226,8025.69733 C682.52973,8028.07082 673.413457,8038.18849 673.113712,8049.59764 C672.922812,8056.88979 673.029984,8064.18982 673.029984,8071.48513 Z" id="path-1"></path>
        <filter x="-1.7%" y="-0.8%" width="103.4%" height="101.7%" filterUnits="objectBoundingBox" id="filter-2">
            <feGaussianBlur stdDeviation="4" in="SourceAlpha" result="shadowBlurInner1"></feGaussianBlur>
            <feOffset dx="2" dy="0" in="shadowBlurInner1" result="shadowOffsetInner1"></feOffset>
            <feComposite in="shadowOffsetInner1" in2="SourceAlpha" operator="arithmetic" k2="-1" k3="1" result="shadowInnerInner1"></feComposite>
            <feColorMatrix values="0 0 0 0 0.788585448   0 0 0 0 0.828589397   0 0 0 0 0.86192602  0 0 0 0.301771966 0" type="matrix" in="shadowInnerInner1"></feColorMatrix>
        </filter>
    </defs>
    <g id="CASE----Hoc" stroke="none" stroke-width="1" fill="none" fill-rule="evenodd">
        <g id="Case-Hoc" transform="translate(-659.000000, -8011.000000)">
            <g id="Mask">
                <use fill="#FFFFFF" fill-rule="evenodd" xlink:href="#path-1"></use>
                <use fill="black" fill-opacity="1" filter="url(#filter-2)" xlink:href="#path-1"></use>
            </g>
        </g>
    </g>
</svg>