<?xml version="1.0" encoding="UTF-8"?>
<svg width="98px" height="25px" viewBox="0 0 98 25" version="1.1" xmlns="http://www.w3.org/2000/svg" xmlns:xlink="http://www.w3.org/1999/xlink">
    <!-- Generator: sketchtool 52.5 (67469) - http://www.bohemiancoding.com/sketch -->
    <title>0923EC49-AC64-4FBE-872E-D2BC9A9C2568</title>
    <desc>Created with sketchtool.</desc>
    <g id="Forside" stroke="none" stroke-width="1" fill="none" fill-rule="evenodd">
        <g id="Front-Page-White" transform="translate(-50.000000, -75.000000)">
            <g id="Front-page-/-Hero">
                <g id="Nav-Bar" transform="translate(50.000000, 75.000000)">
                    <g id="NAV">
                        <g id="logo">
                            <g id="Mask" stroke-width="1" transform="translate(0.000000, 0.000000)">
                                <path d="M14.06625,8.00902778 L18.02875,8.00902778 C17.335,3.665625 13.8718056,0.775694444 9.29472222,0.775694444 C3.90895833,0.775694444 -6.94444444e-05,4.61701389 -6.94444444e-05,9.90972222 C-6.94444444e-05,15.2020833 3.90895833,19.0434028 9.29472222,19.0434028 C13.8718056,19.0434028 17.3353472,16.1534722 18.02875,11.8100694 L14.06625,11.8100694 C13.4422917,14.1305556 11.6669444,15.50625 9.26798611,15.50625 C6.14888889,15.50625 3.88534722,13.1524306 3.88534722,9.90972222 C3.88534722,6.66666667 6.14888889,4.31284722 9.26798611,4.31284722 C11.6669444,4.31284722 13.4422917,5.68854167 14.06625,8.00902778" id="Fill-1" fill="#FFFFFF"></path>
                                <path d="M27.2488194,5.97180556 C25.9859722,5.97180556 24.9140972,6.35618056 23.8759028,7.181875 L23.3127083,7.62944444 L23.3127083,0.347152778 L19.6682639,0.347152778 L19.6682639,18.6683333 L23.3127083,18.6683333 L23.3127083,10.7433333 L23.3984722,10.6454167 C24.2054167,9.72284722 25.154375,9.21451389 26.07,9.21451389 C27.7634028,9.21451389 28.7745139,10.3652083 28.7745139,12.2933333 L28.7745139,18.6683333 L32.4453472,18.6683333 L32.4453472,11.5968056 C32.4453472,8.17979167 30.4057639,5.97180556 27.2488194,5.97180556" id="Fill-4" fill="#FFFFFF"></path>
                                <path d="M40.8630556,8.91947917 C42.0797222,8.91947917 43.0509028,9.3621875 43.8318056,10.2726042 L43.9154861,10.3705208 L43.9154861,14.6444792 L43.8318056,14.7420486 C43.066875,15.6347569 42.0956944,16.0687847 40.8630556,16.0687847 C38.9245139,16.0687847 37.4627083,14.5378819 37.4627083,12.5076736 C37.4627083,10.4955208 38.9564583,8.91947917 40.8630556,8.91947917 M33.8984722,12.5076736 C33.8984722,16.1125347 36.5814583,18.9364931 40.0061111,18.9364931 C41.2734722,18.9364931 42.4088889,18.6212153 43.3814583,18.0000347 L43.9154861,17.6590625 L43.9154861,18.6684375 L47.5595833,18.6684375 L47.5595833,6.37329861 L43.9154861,6.37329861 L43.9154861,7.35628472 L43.3814583,7.0153125 C42.4085417,6.39378472 41.273125,6.07850694 40.0061111,6.07850694 C36.5814583,6.07850694 33.8984722,8.90246528 33.8984722,12.5076736" id="Fill-7" fill="#FFFFFF"></path>
                                <path d="M57.1567361,5.97180556 C55.8938889,5.97180556 54.8220139,6.35618056 53.7838194,7.181875 L53.220625,7.62944444 L53.220625,6.37319444 L49.5761806,6.37319444 L49.5761806,18.6683333 L53.220625,18.6683333 L53.220625,10.7433333 L53.3063889,10.6454167 C54.1136806,9.72284722 55.0629861,9.21451389 55.9782639,9.21451389 C57.6713194,9.21451389 58.6824306,10.3652083 58.6824306,12.2933333 L58.6824306,18.6683333 L62.3536111,18.6683333 L62.3536111,11.5968056 C62.3536111,8.17979167 60.3136806,5.97180556 57.1567361,5.97180556" id="Fill-9" fill="#FFFFFF"></path>
                                <path d="M70.7173611,8.75875 C71.8930556,8.75875 72.8815972,9.20388889 73.65625,10.0820139 L73.7430556,10.1802778 L73.7430556,14.0316667 L73.65625,14.1299306 C72.8819444,15.0077083 71.8934028,15.4525 70.7173611,15.4525 C68.6833333,15.4525 67.3170139,13.7913889 67.3170139,12.2396528 C67.3170139,10.1903472 68.7152778,8.75875 70.7173611,8.75875 M63.753125,12.2396528 C63.753125,15.53375 66.4930556,18.2132639 69.8604167,18.2132639 C71.1260417,18.2132639 72.2253472,17.9309722 73.2208333,17.3500694 L73.7430556,17.0452083 L73.7430556,18.8816667 C73.7430556,20.7198611 72.5763889,21.9073611 70.7711806,21.9073611 C69.1885417,21.9073611 68.1083333,21.199375 67.7621528,19.9521528 L64.1357639,19.9521528 C64.5145833,22.9167361 67.1315972,24.8823611 70.7711806,24.8823611 C74.8520833,24.8823611 77.3875,22.5521528 77.3875,18.8014583 L77.3875,6.37333333 L73.7430556,6.37333333 L73.7430556,7.15423611 L73.2145833,6.83131944 C72.209375,6.21673611 71.1121528,5.91777778 69.8604167,5.91777778 C66.3788194,5.91777778 63.753125,8.63583333 63.753125,12.2396528" id="Fill-11" fill="#FFFFFF"></path>
                                <path d="M82.2547222,11.1659028 C82.6338889,9.619375 83.7522917,8.73222222 85.3241667,8.73222222 C86.9102778,8.73222222 87.9724306,9.62805556 88.2377083,11.1905556 L88.3068056,11.5957639 L82.1495139,11.5957639 L82.2547222,11.1659028 Z M82.3130556,13.8915972 L82.1814583,13.4457639 L91.5727778,13.4457639 C91.6189583,13.0534028 91.6189583,12.6409028 91.6189583,12.2398611 C91.6189583,8.61243056 89.0304167,6.07875 85.3241667,6.07875 C81.4602778,6.07875 78.7613194,8.7225 78.7613194,12.5075694 C78.7613194,16.3086111 81.5373611,18.963125 85.5116667,18.963125 C88.3953472,18.963125 90.6460417,17.5370833 91.3765972,15.2922917 L87.7276389,15.2922917 C87.2613194,15.8981944 86.5015972,16.2294444 85.5651389,16.2294444 C83.9370139,16.2294444 82.7515972,15.3773611 82.3130556,13.8915972 Z" id="Fill-14" fill="#FFFFFF"></path>
                                <path d="M93.3390278,21.1587153 C94.9727083,20.8371875 95.7494444,20.0069792 95.6425,18.6410069 L94.2497917,18.6410069 L94.2497917,14.9448264 L97.8119444,14.9448264 L97.8119444,18.0785069 C97.8119444,21.0514236 96.3925,22.3101042 93.6872917,22.5514236 L93.3390278,21.1587153 Z" id="Fill-16" fill="#D14339"></path>
                                <polygon id="Fill-19" fill="#D14339" points="94.2496528 9.69552083 97.8118056 9.69552083 97.8118056 6.02607639 94.2496528 6.02607639"></polygon>
                            </g>
                            <g id="Colors-/-light-grey" transform="translate(-6.410588, -6.603286)" fill="#F2F2F2">
                                <rect id="Rectangle-Copy" x="0" y="0" width="99" height="41"></rect>
                            </g>
                        </g>
                    </g>
                </g>
            </g>
        </g>
    </g>
</svg>