<?xml version="1.0" encoding="UTF-8"?>
<svg width="18px" height="14px" viewBox="0 0 18 14" version="1.1" xmlns="http://www.w3.org/2000/svg" xmlns:xlink="http://www.w3.org/1999/xlink">
    <!-- Generator: Sketch 53 (72520) - https://sketchapp.com -->
    <title>Mail</title>
    <desc>Created with Sketch.</desc>
    <g id="Om-Change" stroke="none" stroke-width="1" fill="none" fill-rule="evenodd">
        <g id="Om-Change-/-About" transform="translate(-598.000000, -1211.000000)" fill="#FFFFFF" fill-rule="nonzero">
            <g id="telephone-handle-silhouette" transform="translate(606.500000, 1236.000000) scale(-1, 1) translate(-606.500000, -1236.000000) translate(597.000000, 1211.000000)">
                <g id="envelope-of-white-paper" transform="translate(0.000572, 0.000000)">
                    <g id="Mail" transform="translate(0.599928, 0.083099)">
                        <path d="M16.5541224,0.445844336 C16.256904,0.1485594 15.8995108,-3.19744231e-14 15.4821755,-3.19744231e-14 L1.51789096,-3.19744231e-14 C1.10048922,-3.19744231e-14 0.743096045,0.1485594 0.445844336,0.445844336 C0.1485594,0.743062817 0,1.10042277 0,1.51789096 L0,11.8393967 C0,12.2569313 0.1485594,12.6139922 0.445844336,12.9112107 C0.743062817,13.208695 1.100456,13.357188 1.51789096,13.357188 L15.4822087,13.357188 C15.899544,13.357188 16.256904,13.208695 16.5541557,12.9112107 C16.8515071,12.6139922 17,12.256732 17,11.8393967 L17,1.51789096 C16.9999668,1.10042277 16.8515071,0.743062817 16.5541224,0.445844336 Z M15.7855743,11.8391641 C15.7855743,11.9214017 15.75557,11.9925414 15.6953953,12.0526165 C15.6352538,12.1127579 15.5641805,12.1425296 15.4820758,12.1425296 L1.51779128,12.1425296 C1.43558686,12.1425296 1.36441392,12.1127579 1.30437213,12.0526165 C1.24426389,11.9925414 1.21425961,11.9214017 1.21425961,11.8391641 L1.21425961,4.55350675 C1.41661406,4.78118043 1.63481794,4.98991453 1.86883804,5.17960936 C3.56383068,6.48241981 4.91089993,7.55117693 5.9101787,8.38604687 C6.23271641,8.6580458 6.49521233,8.86987004 6.69756678,9.02168572 C6.89992123,9.17356785 7.17344863,9.32687876 7.51808251,9.48175135 C7.86274962,9.63685654 8.18691547,9.71404363 8.49048037,9.71404363 L8.50001661,9.71404363 L8.50945318,9.71404363 C8.81295162,9.71404363 9.13725038,9.63685654 9.48178458,9.48175135 C9.82655137,9.32687876 10.1002449,9.17360108 10.3025329,9.02168572 C10.5048541,8.86987004 10.7673833,8.6580458 11.0899542,8.38604687 C12.089233,7.55117693 13.4361361,6.48241981 15.1311952,5.17960936 C15.3652153,4.98994775 15.5835189,4.78118043 15.7855743,4.55350675 L15.7855743,11.8391641 L15.7855743,11.8391641 Z M15.7855743,1.76447099 L15.7855743,1.86880481 C15.7855743,2.24191452 15.6386762,2.6577878 15.3446143,3.11625852 C15.0505192,3.57472925 14.7326001,3.94003053 14.391289,4.21189656 C13.1705168,5.17336263 11.9026615,6.17566508 10.5869256,7.21916943 C10.5490465,7.25076863 10.4382665,7.34400452 10.2547852,7.49887711 C10.0715697,7.6539823 9.92603401,7.77270355 9.81847713,7.85480829 C9.71078735,7.93714562 9.57023574,8.03672793 9.39639034,8.15362168 C9.22241203,8.27051543 9.0627547,8.3576375 8.91731867,8.41448946 C8.77188264,8.47120852 8.63588317,8.49961789 8.50945318,8.49961789 L8.50001661,8.49961789 L8.49048037,8.49961789 C8.36401715,8.49961789 8.22815059,8.47120852 8.08261487,8.41448946 C7.93717884,8.3576375 7.77742183,8.27051543 7.60357643,8.15362168 C7.42976426,8.0366947 7.28901329,7.93711239 7.18148964,7.85480829 C7.07403245,7.77270355 6.92849674,7.6539823 6.74514832,7.49887711 C6.56173345,7.34400452 6.45095353,7.25076863 6.41304114,7.21916943 C5.09760431,6.17563186 3.82961611,5.17336263 2.60894362,4.21189656 C1.67920966,3.47836998 1.21442574,2.58023521 1.21442574,1.51772483 C1.21442574,1.43558686 1.24443002,1.36438069 1.30453827,1.30437213 C1.36464651,1.24426389 1.435753,1.21419315 1.51795742,1.21419315 L15.4822752,1.21419315 C15.5327807,1.24260252 15.577106,1.25051063 15.6150848,1.23795069 C15.6530637,1.22515817 15.681473,1.24894894 15.7003462,1.30899073 C15.719319,1.36909897 15.7367301,1.39750834 15.7525131,1.39438497 C15.7683625,1.39119515 15.7778987,1.43070245 15.7810553,1.51303977 C15.7840126,1.59521096 15.7856075,1.63657899 15.7856075,1.63657899 L15.7856075,1.76447099 L15.7855743,1.76447099 Z" id="Shape"></path>
                    </g>
                </g>
            </g>
        </g>
    </g>
</svg>