<?xml version="1.0" encoding="UTF-8"?>
<svg width="17px" height="18px" viewBox="0 0 17 18" version="1.1" xmlns="http://www.w3.org/2000/svg" xmlns:xlink="http://www.w3.org/1999/xlink">
    <!-- Generator: Sketch 53 (72520) - https://sketchapp.com -->
    <title>phone</title>
    <desc>Created with Sketch.</desc>
    <g id="Om-Change" stroke="none" stroke-width="1" fill="none" fill-rule="evenodd">
        <g id="Om-Change-/-About" transform="translate(-598.000000, -1243.000000)" fill="#FFFFFF" fill-rule="nonzero">
            <g id="telephone-handle-silhouette" transform="translate(606.500000, 1236.000000) scale(-1, 1) translate(-606.500000, -1236.000000) translate(597.000000, 1211.000000)">
                <g id="phone" transform="translate(1.001625, 32.600000)">
                    <path d="M16.962786,13.1718611 C16.9147038,13.0269802 16.6087876,12.8135493 16.0452489,12.532076 C15.8925868,12.4433543 15.6750539,12.3227894 15.3935806,12.1698313 C15.1118535,12.0168732 14.856134,11.8759251 14.6268871,11.7471138 C14.3971751,11.6183448 14.1819681,11.4935933 13.9808855,11.3730283 C13.9487461,11.3488815 13.8481414,11.2785554 13.6791136,11.161585 C13.5099167,11.0449528 13.3672347,10.958388 13.2503066,10.9019326 C13.1336322,10.8458155 13.0188607,10.8175667 12.9061615,10.8175667 C12.7452108,10.8175667 12.5441705,10.9323381 12.3027868,11.161585 C12.0614031,11.3911278 11.8399797,11.6404618 11.6388548,11.910348 C11.4376877,12.1801074 11.2243414,12.4294414 10.9991965,12.6588574 C10.7737134,12.8883579 10.5884467,13.0030025 10.4437349,13.0030025 C10.371083,13.0030025 10.2805007,12.9827462 10.1719457,12.9427834 C10.063433,12.9025669 9.98088552,12.8681017 9.92421872,12.840318 C9.86805937,12.8119423 9.77168351,12.755783 9.63475282,12.6709942 C9.4975684,12.5864592 9.42127965,12.5401531 9.40520996,12.532076 C8.30253309,11.9202013 7.35683173,11.219901 6.56793674,10.4313444 C5.77929547,9.64232249 5.07891064,8.69670571 4.46720514,7.59390197 C4.4591703,7.57778999 4.41277963,7.5012898 4.32832917,7.36452827 C4.24375185,7.22763987 4.18738106,7.13117943 4.15921681,7.07468178 C4.13105256,7.01839557 4.09684104,6.9358481 4.05666681,6.82720853 C4.01649258,6.71856895 3.99632089,6.62807121 3.99632089,6.55554616 C3.99632089,6.41074978 4.11105003,6.22552544 4.34046602,6.00012687 C4.56983973,5.77485516 4.81942741,5.56146657 5.08897535,5.36038398 C5.35873472,5.15930139 5.60806868,4.93787795 5.83752696,4.69649427 C6.06690066,4.45498372 6.18158752,4.25385884 6.18158752,4.09290819 C6.18158752,3.98029348 6.15342327,3.86547976 6.09713706,3.74880535 C6.04080856,3.63187719 5.95428596,3.48919525 5.83752696,3.32008289 C5.72072567,3.1510551 5.65031505,3.05053495 5.62612594,3.01818412 C5.50551867,2.81710154 5.38089398,2.60180995 5.25195585,2.37239396 C5.12301772,2.14302026 4.98228105,1.887343 4.82928067,1.60565822 C4.67640716,1.32410031 4.5557576,1.1066943 4.46712056,0.953778492 C4.18556265,0.39045122 3.97230093,0.0844504588 3.82737768,0.036325961 C3.77100689,0.0121791348 3.68642957,1.13686838e-13 3.57385715,1.13686838e-13 C3.35640885,1.13686838e-13 3.0727365,0.0401742293 2.72262866,0.12077642 C2.37239396,0.201251744 2.09679875,0.285659915 1.895547,0.37433924 C1.4930858,0.543282446 1.06652007,1.03425382 0.615722925,1.8470842 C0.205226879,2.60354379 1.77635684e-15,3.35226456 1.77635684e-15,4.09269675 C1.77635684e-15,4.30984903 0.0140821246,4.52112319 0.0422463737,4.72656151 C0.0704106229,4.93178839 0.120734131,5.16323424 0.193259187,5.42085677 C0.265657377,5.67839472 0.32405802,5.86970863 0.368207384,5.99429103 C0.412399036,6.11895801 0.494904216,6.34228443 0.615680636,6.66435489 C0.736287901,6.98634076 0.808812957,7.18344822 0.832959783,7.2558887 C1.11464456,8.0447414 1.44868271,8.7489745 1.83498964,9.36879942 C2.47058824,10.3990358 3.33797099,11.4637375 4.43663044,12.5624815 C5.53533218,13.6611409 6.59982239,14.5284814 7.63014336,15.1643337 C8.24988371,15.5505984 8.95437053,15.8845942 9.74309638,16.1664905 C9.81557914,16.1905104 10.0126866,16.2628663 10.3345456,16.3838965 C10.6565315,16.5045883 10.8799425,16.5870935 11.0046095,16.6313697 C11.1293187,16.6756882 11.3206749,16.7341312 11.5780014,16.8066562 C11.8358777,16.8791813 12.0671121,16.9295048 12.272339,16.9578805 C12.4776927,16.9856641 12.6890092,17 12.9062037,17 C13.6465936,17 14.3953567,16.7946463 15.1519432,16.3841925 C15.964689,15.9335645 16.4555335,15.5069142 16.6245613,15.104157 C16.713452,14.9031167 16.7976488,14.6274369 16.8781241,14.2772022 C16.9588531,13.9271366 16.9989428,13.6435066 16.9989428,13.4261006 C16.9991965,13.313063 16.9870597,13.2286971 16.962786,13.1718611 Z" id="Path"></path>
                </g>
            </g>
        </g>
    </g>
</svg>