<?xml version="1.0" encoding="UTF-8"?>
<svg width="850px" height="228px" viewBox="0 0 850 228" version="1.1" xmlns="http://www.w3.org/2000/svg" xmlns:xlink="http://www.w3.org/1999/xlink">
    <!-- Generator: Sketch 52.6 (67491) - http://www.bohemiancoding.com/sketch -->
    <title>Path</title>
    <desc>Created with Sketch.</desc>
    <g id="Om-Change" stroke="none" stroke-width="1" fill="none" fill-rule="evenodd">
        <g id="Om-Change-/-Process" transform="translate(-346.000000, -2068.000000)" fill="#979797" fill-rule="nonzero">
            <g id="Om-Change-/-Process-Arrows-Copy" transform="translate(350.812500, 2072.859375)">
                <path id="Path" d="M841.079009,4.54938485 C840.992163,6.40672023 840.851358,8.25600914 840.657063,10.0956634 C840.62806,10.3702785 840.381928,10.569386 840.107313,10.5403825 C839.832698,10.511379 839.633591,10.2652476 839.662594,9.99063261 C839.854028,8.17807334 839.992985,6.35602211 840.079006,4.52602243 C837.840333,4.22535247 836.136352,2.28440583 836.184572,-0.0274349602 C836.236399,-2.51217588 838.292694,-4.48444225 840.777435,-4.43261518 C843.262176,-4.38078811 845.234442,-2.32449346 845.182615,0.16024746 C845.134232,2.47985643 843.338956,4.35284389 841.079009,4.54938485 Z M840.704676,3.56636746 C842.594818,3.5559279 844.143179,2.04052348 844.182833,0.139393858 C844.223143,-1.79318242 842.689158,-3.3925227 840.756581,-3.43283264 C838.824005,-3.47314258 837.224665,-1.93915763 837.184355,-0.00658135793 C837.144702,1.8945118 838.628468,3.47313786 840.516479,3.56243916 C840.550428,3.55669593 840.585488,3.5543929 840.621269,3.55588835 C840.64979,3.55708038 840.677653,3.56063918 840.704676,3.56636746 Z M-5.13558555e-13,222.634962 L-4.5,213.634962 L4.5,213.634962 L-5.13558555e-13,222.634962 Z M838.846554,15.9029153 C838.893044,15.6307145 839.151394,15.4477396 839.423595,15.4942295 C839.695795,15.5407194 839.87877,15.7990692 839.83228,16.0712701 C839.492997,18.0577944 839.090589,20.0293149 838.625936,21.9835535 C838.562059,22.2522064 838.29249,22.4182103 838.023838,22.3543336 C837.755185,22.2904568 837.589181,22.0208883 837.653058,21.7522354 C838.112758,19.8188258 838.51088,17.8683037 838.846554,15.9029153 Z M836.083822,27.5192456 C836.16488,27.255268 836.444587,27.1069828 836.708565,27.1880412 C836.972542,27.2690997 837.120827,27.5488066 837.039769,27.8127842 C836.449271,29.7358195 835.79747,31.6376841 835.085569,33.5159171 C834.987698,33.7741338 834.699032,33.9041196 834.440815,33.8062485 C834.182599,33.7083774 834.052613,33.4197113 834.150484,33.1614946 C834.854786,31.3033084 835.499628,29.4217485 836.083822,27.5192456 Z M831.841552,38.7048797 C831.955918,38.4535332 832.252386,38.3424883 832.503733,38.4568541 C832.75508,38.5712198 832.866124,38.8676882 832.751759,39.1190348 C831.918824,40.9496118 831.0275,42.7525085 830.079341,44.5251612 C829.949099,44.7686596 829.646122,44.8604714 829.402623,44.7302287 C829.159125,44.599986 829.067313,44.297009 829.197556,44.0535107 C830.135637,42.2996976 831.017482,40.5159753 831.841552,38.7048797 Z M826.228043,49.20346 C826.37353,48.9687511 826.681739,48.8964222 826.916448,49.0419088 C827.151157,49.1873954 827.223486,49.4956047 827.077999,49.7303136 C826.018311,51.4398746 824.904226,53.1152125 823.737641,54.7537665 C823.577484,54.9787199 823.265289,55.0312472 823.040336,54.8710893 C822.815382,54.7109315 822.762855,54.3987371 822.923013,54.1737836 C824.077267,52.552548 825.17957,50.8949284 826.228043,49.20346 Z M819.287843,58.948461 C819.462061,58.7342123 819.776976,58.7017613 819.991225,58.8759798 C820.205474,59.0501982 820.237925,59.3651131 820.063706,59.5793619 C818.795056,61.1395114 817.477,62.6590727 816.111735,64.1356029 C815.924262,64.3383549 815.607922,64.3507407 815.40517,64.1632673 C815.202418,63.975794 815.190032,63.6594539 815.377505,63.4567019 C816.728391,61.9957229 818.032562,60.4921694 819.287843,58.948461 Z M811.160794,67.7343279 C811.360836,67.5439658 811.677322,67.551813 811.867684,67.7518552 C812.058046,67.9518974 812.050199,68.2683826 811.850156,68.4587447 C810.392949,69.8454379 808.892007,71.1855338 807.349757,72.4768039 C807.138028,72.6540766 806.822681,72.6261446 806.645408,72.414416 C806.468135,72.2026874 806.496067,71.8873395 806.707796,71.7100668 C808.233798,70.4324004 809.718932,69.1064186 811.160794,67.7343279 Z M802.066539,75.3540594 C802.288994,75.1904482 802.601962,75.2381502 802.765573,75.4606047 C802.929184,75.6830593 802.881482,75.9960273 802.659028,76.1596384 C801.039278,77.3509338 799.381997,78.4903638 797.689733,79.5759942 C797.457307,79.7251012 797.148014,79.6575581 796.998907,79.4251324 C796.8498,79.1927067 796.917343,78.8834133 797.149768,78.7343063 C798.824134,77.6601578 800.463899,76.5327709 802.066539,75.3540594 Z M792.006449,81.8056312 C792.24796,81.671738 792.552284,81.7589789 792.686177,82.0004892 C792.820071,82.2419995 792.73283,82.5463241 792.491319,82.6802173 C790.732854,83.6551096 788.943364,84.5736153 787.125416,85.4341389 C786.875824,85.5522834 786.577714,85.4457235 786.45957,85.1961309 C786.341425,84.9465382 786.447985,84.6484284 786.697578,84.5302839 C788.496189,83.6789125 790.266661,82.7701692 792.006449,81.8056312 Z M781.202156,86.9177328 C781.458849,86.8159322 781.749465,86.9414972 781.851266,87.1981901 C781.953066,87.454883 781.827501,87.7454994 781.570808,87.8473 C779.702423,88.588274 777.809605,89.2694053 775.894834,89.8894486 C775.632122,89.9745203 775.350188,89.8305145 775.265117,89.5678028 C775.180045,89.3050911 775.324051,89.0231571 775.586763,88.9380855 C777.481091,88.3246616 779.353707,87.6508006 781.202156,86.9177328 Z M769.820284,90.6010971 C770.087951,90.5332091 770.359972,90.6951624 770.42786,90.9628298 C770.495748,91.2304972 770.333795,91.5025186 770.066128,91.5704065 C768.119599,92.0641006 766.155078,92.4957664 764.174866,92.8644897 C763.903389,92.9150396 763.642336,92.7359435 763.591786,92.4644673 C763.541236,92.1929911 763.720332,91.9319374 763.991808,91.8813875 C765.950932,91.5165909 767.894514,91.0895261 769.820284,90.6010971 Z M758.04796,92.7907303 C758.32213,92.7577849 758.571096,92.9533361 758.604041,93.2275062 C758.636987,93.5016762 758.441435,93.7506425 758.167265,93.7835879 C756.175659,94.0229074 754.172088,94.1993582 752.158605,94.3123125 C751.882896,94.3277795 751.646851,94.1168118 751.631384,93.8411029 C751.615917,93.565394 751.826885,93.3293494 752.102594,93.3138824 C754.094916,93.2021151 756.077379,93.0275233 758.04796,92.7907303 Z M746.090978,93.4625742 C746.36712,93.4625742 746.590978,93.6864318 746.590978,93.9625742 C746.590978,94.2387166 746.36712,94.4625742 746.090978,94.4625742 L740.090978,94.4625742 C739.814835,94.4625742 739.590978,94.2387166 739.590978,93.9625742 C739.590978,93.6864318 739.814835,93.4625742 740.090978,93.4625742 L746.090978,93.4625742 Z M734.090978,93.4625742 C734.36712,93.4625742 734.590978,93.6864318 734.590978,93.9625742 C734.590978,94.2387166 734.36712,94.4625742 734.090978,94.4625742 L728.090978,94.4625742 C727.814835,94.4625742 727.590978,94.2387166 727.590978,93.9625742 C727.590978,93.6864318 727.814835,93.4625742 728.090978,93.4625742 L734.090978,93.4625742 Z M722.090978,93.4625742 C722.36712,93.4625742 722.590978,93.6864318 722.590978,93.9625742 C722.590978,94.2387166 722.36712,94.4625742 722.090978,94.4625742 L716.090978,94.4625742 C715.814835,94.4625742 715.590978,94.2387166 715.590978,93.9625742 C715.590978,93.6864318 715.814835,93.4625742 716.090978,93.4625742 L722.090978,93.4625742 Z M710.090978,93.4625742 C710.36712,93.4625742 710.590978,93.6864318 710.590978,93.9625742 C710.590978,94.2387166 710.36712,94.4625742 710.090978,94.4625742 L704.090978,94.4625742 C703.814835,94.4625742 703.590978,94.2387166 703.590978,93.9625742 C703.590978,93.6864318 703.814835,93.4625742 704.090978,93.4625742 L710.090978,93.4625742 Z M698.090978,93.4625742 C698.36712,93.4625742 698.590978,93.6864318 698.590978,93.9625742 C698.590978,94.2387166 698.36712,94.4625742 698.090978,94.4625742 L692.090978,94.4625742 C691.814835,94.4625742 691.590978,94.2387166 691.590978,93.9625742 C691.590978,93.6864318 691.814835,93.4625742 692.090978,93.4625742 L698.090978,93.4625742 Z M686.090978,93.4625742 C686.36712,93.4625742 686.590978,93.6864318 686.590978,93.9625742 C686.590978,94.2387166 686.36712,94.4625742 686.090978,94.4625742 L680.090978,94.4625742 C679.814835,94.4625742 679.590978,94.2387166 679.590978,93.9625742 C679.590978,93.6864318 679.814835,93.4625742 680.090978,93.4625742 L686.090978,93.4625742 Z M674.090978,93.4625742 C674.36712,93.4625742 674.590978,93.6864318 674.590978,93.9625742 C674.590978,94.2387166 674.36712,94.4625742 674.090978,94.4625742 L668.090978,94.4625742 C667.814835,94.4625742 667.590978,94.2387166 667.590978,93.9625742 C667.590978,93.6864318 667.814835,93.4625742 668.090978,93.4625742 L674.090978,93.4625742 Z M662.090978,93.4625742 C662.36712,93.4625742 662.590978,93.6864318 662.590978,93.9625742 C662.590978,94.2387166 662.36712,94.4625742 662.090978,94.4625742 L656.090978,94.4625742 C655.814835,94.4625742 655.590978,94.2387166 655.590978,93.9625742 C655.590978,93.6864318 655.814835,93.4625742 656.090978,93.4625742 L662.090978,93.4625742 Z M650.090978,93.4625742 C650.36712,93.4625742 650.590978,93.6864318 650.590978,93.9625742 C650.590978,94.2387166 650.36712,94.4625742 650.090978,94.4625742 L644.090978,94.4625742 C643.814835,94.4625742 643.590978,94.2387166 643.590978,93.9625742 C643.590978,93.6864318 643.814835,93.4625742 644.090978,93.4625742 L650.090978,93.4625742 Z M638.090978,93.4625742 C638.36712,93.4625742 638.590978,93.6864318 638.590978,93.9625742 C638.590978,94.2387166 638.36712,94.4625742 638.090978,94.4625742 L632.090978,94.4625742 C631.814835,94.4625742 631.590978,94.2387166 631.590978,93.9625742 C631.590978,93.6864318 631.814835,93.4625742 632.090978,93.4625742 L638.090978,93.4625742 Z M626.090978,93.4625742 C626.36712,93.4625742 626.590978,93.6864318 626.590978,93.9625742 C626.590978,94.2387166 626.36712,94.4625742 626.090978,94.4625742 L620.090978,94.4625742 C619.814835,94.4625742 619.590978,94.2387166 619.590978,93.9625742 C619.590978,93.6864318 619.814835,93.4625742 620.090978,93.4625742 L626.090978,93.4625742 Z M614.090978,93.4625742 C614.36712,93.4625742 614.590978,93.6864318 614.590978,93.9625742 C614.590978,94.2387166 614.36712,94.4625742 614.090978,94.4625742 L608.090978,94.4625742 C607.814835,94.4625742 607.590978,94.2387166 607.590978,93.9625742 C607.590978,93.6864318 607.814835,93.4625742 608.090978,93.4625742 L614.090978,93.4625742 Z M602.090978,93.4625742 C602.36712,93.4625742 602.590978,93.6864318 602.590978,93.9625742 C602.590978,94.2387166 602.36712,94.4625742 602.090978,94.4625742 L596.090978,94.4625742 C595.814835,94.4625742 595.590978,94.2387166 595.590978,93.9625742 C595.590978,93.6864318 595.814835,93.4625742 596.090978,93.4625742 L602.090978,93.4625742 Z M590.090978,93.4625742 C590.36712,93.4625742 590.590978,93.6864318 590.590978,93.9625742 C590.590978,94.2387166 590.36712,94.4625742 590.090978,94.4625742 L584.090978,94.4625742 C583.814835,94.4625742 583.590978,94.2387166 583.590978,93.9625742 C583.590978,93.6864318 583.814835,93.4625742 584.090978,93.4625742 L590.090978,93.4625742 Z M578.090978,93.4625742 C578.36712,93.4625742 578.590978,93.6864318 578.590978,93.9625742 C578.590978,94.2387166 578.36712,94.4625742 578.090978,94.4625742 L572.090978,94.4625742 C571.814835,94.4625742 571.590978,94.2387166 571.590978,93.9625742 C571.590978,93.6864318 571.814835,93.4625742 572.090978,93.4625742 L578.090978,93.4625742 Z M566.090978,93.4625742 C566.36712,93.4625742 566.590978,93.6864318 566.590978,93.9625742 C566.590978,94.2387166 566.36712,94.4625742 566.090978,94.4625742 L560.090978,94.4625742 C559.814835,94.4625742 559.590978,94.2387166 559.590978,93.9625742 C559.590978,93.6864318 559.814835,93.4625742 560.090978,93.4625742 L566.090978,93.4625742 Z M554.090978,93.4625742 C554.36712,93.4625742 554.590978,93.6864318 554.590978,93.9625742 C554.590978,94.2387166 554.36712,94.4625742 554.090978,94.4625742 L548.090978,94.4625742 C547.814835,94.4625742 547.590978,94.2387166 547.590978,93.9625742 C547.590978,93.6864318 547.814835,93.4625742 548.090978,93.4625742 L554.090978,93.4625742 Z M542.090978,93.4625742 C542.36712,93.4625742 542.590978,93.6864318 542.590978,93.9625742 C542.590978,94.2387166 542.36712,94.4625742 542.090978,94.4625742 L536.090978,94.4625742 C535.814835,94.4625742 535.590978,94.2387166 535.590978,93.9625742 C535.590978,93.6864318 535.814835,93.4625742 536.090978,93.4625742 L542.090978,93.4625742 Z M530.090978,93.4625742 C530.36712,93.4625742 530.590978,93.6864318 530.590978,93.9625742 C530.590978,94.2387166 530.36712,94.4625742 530.090978,94.4625742 L524.090978,94.4625742 C523.814835,94.4625742 523.590978,94.2387166 523.590978,93.9625742 C523.590978,93.6864318 523.814835,93.4625742 524.090978,93.4625742 L530.090978,93.4625742 Z M518.090978,93.4625742 C518.36712,93.4625742 518.590978,93.6864318 518.590978,93.9625742 C518.590978,94.2387166 518.36712,94.4625742 518.090978,94.4625742 L512.090978,94.4625742 C511.814835,94.4625742 511.590978,94.2387166 511.590978,93.9625742 C511.590978,93.6864318 511.814835,93.4625742 512.090978,93.4625742 L518.090978,93.4625742 Z M506.090978,93.4625742 C506.36712,93.4625742 506.590978,93.6864318 506.590978,93.9625742 C506.590978,94.2387166 506.36712,94.4625742 506.090978,94.4625742 L500.090978,94.4625742 C499.814835,94.4625742 499.590978,94.2387166 499.590978,93.9625742 C499.590978,93.6864318 499.814835,93.4625742 500.090978,93.4625742 L506.090978,93.4625742 Z M494.090978,93.4625742 C494.36712,93.4625742 494.590978,93.6864318 494.590978,93.9625742 C494.590978,94.2387166 494.36712,94.4625742 494.090978,94.4625742 L488.090978,94.4625742 C487.814835,94.4625742 487.590978,94.2387166 487.590978,93.9625742 C487.590978,93.6864318 487.814835,93.4625742 488.090978,93.4625742 L494.090978,93.4625742 Z M482.090978,93.4625742 C482.36712,93.4625742 482.590978,93.6864318 482.590978,93.9625742 C482.590978,94.2387166 482.36712,94.4625742 482.090978,94.4625742 L476.090978,94.4625742 C475.814835,94.4625742 475.590978,94.2387166 475.590978,93.9625742 C475.590978,93.6864318 475.814835,93.4625742 476.090978,93.4625742 L482.090978,93.4625742 Z M470.090978,93.4625742 C470.36712,93.4625742 470.590978,93.6864318 470.590978,93.9625742 C470.590978,94.2387166 470.36712,94.4625742 470.090978,94.4625742 L464.090978,94.4625742 C463.814835,94.4625742 463.590978,94.2387166 463.590978,93.9625742 C463.590978,93.6864318 463.814835,93.4625742 464.090978,93.4625742 L470.090978,93.4625742 Z M458.090978,93.4625742 C458.36712,93.4625742 458.590978,93.6864318 458.590978,93.9625742 C458.590978,94.2387166 458.36712,94.4625742 458.090978,94.4625742 L452.090978,94.4625742 C451.814835,94.4625742 451.590978,94.2387166 451.590978,93.9625742 C451.590978,93.6864318 451.814835,93.4625742 452.090978,93.4625742 L458.090978,93.4625742 Z M446.090978,93.4625742 C446.36712,93.4625742 446.590978,93.6864318 446.590978,93.9625742 C446.590978,94.2387166 446.36712,94.4625742 446.090978,94.4625742 L440.090978,94.4625742 C439.814835,94.4625742 439.590978,94.2387166 439.590978,93.9625742 C439.590978,93.6864318 439.814835,93.4625742 440.090978,93.4625742 L446.090978,93.4625742 Z M434.090978,93.4625742 C434.36712,93.4625742 434.590978,93.6864318 434.590978,93.9625742 C434.590978,94.2387166 434.36712,94.4625742 434.090978,94.4625742 L428.090978,94.4625742 C427.814835,94.4625742 427.590978,94.2387166 427.590978,93.9625742 C427.590978,93.6864318 427.814835,93.4625742 428.090978,93.4625742 L434.090978,93.4625742 Z M422.090978,93.4625742 C422.36712,93.4625742 422.590978,93.6864318 422.590978,93.9625742 C422.590978,94.2387166 422.36712,94.4625742 422.090978,94.4625742 L416.090978,94.4625742 C415.814835,94.4625742 415.590978,94.2387166 415.590978,93.9625742 C415.590978,93.6864318 415.814835,93.4625742 416.090978,93.4625742 L422.090978,93.4625742 Z M410.090978,93.4625742 C410.36712,93.4625742 410.590978,93.6864318 410.590978,93.9625742 C410.590978,94.2387166 410.36712,94.4625742 410.090978,94.4625742 L404.090978,94.4625742 C403.814835,94.4625742 403.590978,94.2387166 403.590978,93.9625742 C403.590978,93.6864318 403.814835,93.4625742 404.090978,93.4625742 L410.090978,93.4625742 Z M398.090978,93.4625742 C398.36712,93.4625742 398.590978,93.6864318 398.590978,93.9625742 C398.590978,94.2387166 398.36712,94.4625742 398.090978,94.4625742 L392.090978,94.4625742 C391.814835,94.4625742 391.590978,94.2387166 391.590978,93.9625742 C391.590978,93.6864318 391.814835,93.4625742 392.090978,93.4625742 L398.090978,93.4625742 Z M386.090978,93.4625742 C386.36712,93.4625742 386.590978,93.6864318 386.590978,93.9625742 C386.590978,94.2387166 386.36712,94.4625742 386.090978,94.4625742 L380.090978,94.4625742 C379.814835,94.4625742 379.590978,94.2387166 379.590978,93.9625742 C379.590978,93.6864318 379.814835,93.4625742 380.090978,93.4625742 L386.090978,93.4625742 Z M374.090978,93.4625742 C374.36712,93.4625742 374.590978,93.6864318 374.590978,93.9625742 C374.590978,94.2387166 374.36712,94.4625742 374.090978,94.4625742 L368.090978,94.4625742 C367.814835,94.4625742 367.590978,94.2387166 367.590978,93.9625742 C367.590978,93.6864318 367.814835,93.4625742 368.090978,93.4625742 L374.090978,93.4625742 Z M362.090978,93.4625742 C362.36712,93.4625742 362.590978,93.6864318 362.590978,93.9625742 C362.590978,94.2387166 362.36712,94.4625742 362.090978,94.4625742 L356.090978,94.4625742 C355.814835,94.4625742 355.590978,94.2387166 355.590978,93.9625742 C355.590978,93.6864318 355.814835,93.4625742 356.090978,93.4625742 L362.090978,93.4625742 Z M350.090978,93.4625742 C350.36712,93.4625742 350.590978,93.6864318 350.590978,93.9625742 C350.590978,94.2387166 350.36712,94.4625742 350.090978,94.4625742 L344.090978,94.4625742 C343.814835,94.4625742 343.590978,94.2387166 343.590978,93.9625742 C343.590978,93.6864318 343.814835,93.4625742 344.090978,93.4625742 L350.090978,93.4625742 Z M338.090978,93.4625742 C338.36712,93.4625742 338.590978,93.6864318 338.590978,93.9625742 C338.590978,94.2387166 338.36712,94.4625742 338.090978,94.4625742 L332.090978,94.4625742 C331.814835,94.4625742 331.590978,94.2387166 331.590978,93.9625742 C331.590978,93.6864318 331.814835,93.4625742 332.090978,93.4625742 L338.090978,93.4625742 Z M326.090978,93.4625742 C326.36712,93.4625742 326.590978,93.6864318 326.590978,93.9625742 C326.590978,94.2387166 326.36712,94.4625742 326.090978,94.4625742 L320.090978,94.4625742 C319.814835,94.4625742 319.590978,94.2387166 319.590978,93.9625742 C319.590978,93.6864318 319.814835,93.4625742 320.090978,93.4625742 L326.090978,93.4625742 Z M314.090978,93.4625742 C314.36712,93.4625742 314.590978,93.6864318 314.590978,93.9625742 C314.590978,94.2387166 314.36712,94.4625742 314.090978,94.4625742 L308.090978,94.4625742 C307.814835,94.4625742 307.590978,94.2387166 307.590978,93.9625742 C307.590978,93.6864318 307.814835,93.4625742 308.090978,93.4625742 L314.090978,93.4625742 Z M302.090978,93.4625742 C302.36712,93.4625742 302.590978,93.6864318 302.590978,93.9625742 C302.590978,94.2387166 302.36712,94.4625742 302.090978,94.4625742 L296.090978,94.4625742 C295.814835,94.4625742 295.590978,94.2387166 295.590978,93.9625742 C295.590978,93.6864318 295.814835,93.4625742 296.090978,93.4625742 L302.090978,93.4625742 Z M290.090978,93.4625742 C290.36712,93.4625742 290.590978,93.6864318 290.590978,93.9625742 C290.590978,94.2387166 290.36712,94.4625742 290.090978,94.4625742 L284.090978,94.4625742 C283.814835,94.4625742 283.590978,94.2387166 283.590978,93.9625742 C283.590978,93.6864318 283.814835,93.4625742 284.090978,93.4625742 L290.090978,93.4625742 Z M278.090978,93.4625742 C278.36712,93.4625742 278.590978,93.6864318 278.590978,93.9625742 C278.590978,94.2387166 278.36712,94.4625742 278.090978,94.4625742 L272.090978,94.4625742 C271.814835,94.4625742 271.590978,94.2387166 271.590978,93.9625742 C271.590978,93.6864318 271.814835,93.4625742 272.090978,93.4625742 L278.090978,93.4625742 Z M266.090978,93.4625742 C266.36712,93.4625742 266.590978,93.6864318 266.590978,93.9625742 C266.590978,94.2387166 266.36712,94.4625742 266.090978,94.4625742 L260.090978,94.4625742 C259.814835,94.4625742 259.590978,94.2387166 259.590978,93.9625742 C259.590978,93.6864318 259.814835,93.4625742 260.090978,93.4625742 L266.090978,93.4625742 Z M254.090978,93.4625742 C254.36712,93.4625742 254.590978,93.6864318 254.590978,93.9625742 C254.590978,94.2387166 254.36712,94.4625742 254.090978,94.4625742 L248.090978,94.4625742 C247.814835,94.4625742 247.590978,94.2387166 247.590978,93.9625742 C247.590978,93.6864318 247.814835,93.4625742 248.090978,93.4625742 L254.090978,93.4625742 Z M242.090978,93.4625742 C242.36712,93.4625742 242.590978,93.6864318 242.590978,93.9625742 C242.590978,94.2387166 242.36712,94.4625742 242.090978,94.4625742 L236.090978,94.4625742 C235.814835,94.4625742 235.590978,94.2387166 235.590978,93.9625742 C235.590978,93.6864318 235.814835,93.4625742 236.090978,93.4625742 L242.090978,93.4625742 Z M230.090978,93.4625742 C230.36712,93.4625742 230.590978,93.6864318 230.590978,93.9625742 C230.590978,94.2387166 230.36712,94.4625742 230.090978,94.4625742 L224.090978,94.4625742 C223.814835,94.4625742 223.590978,94.2387166 223.590978,93.9625742 C223.590978,93.6864318 223.814835,93.4625742 224.090978,93.4625742 L230.090978,93.4625742 Z M218.090978,93.4625742 C218.36712,93.4625742 218.590978,93.6864318 218.590978,93.9625742 C218.590978,94.2387166 218.36712,94.4625742 218.090978,94.4625742 L212.090978,94.4625742 C211.814835,94.4625742 211.590978,94.2387166 211.590978,93.9625742 C211.590978,93.6864318 211.814835,93.4625742 212.090978,93.4625742 L218.090978,93.4625742 Z M206.090978,93.4625742 C206.36712,93.4625742 206.590978,93.6864318 206.590978,93.9625742 C206.590978,94.2387166 206.36712,94.4625742 206.090978,94.4625742 L200.090978,94.4625742 C199.814835,94.4625742 199.590978,94.2387166 199.590978,93.9625742 C199.590978,93.6864318 199.814835,93.4625742 200.090978,93.4625742 L206.090978,93.4625742 Z M194.090978,93.4625742 C194.36712,93.4625742 194.590978,93.6864318 194.590978,93.9625742 C194.590978,94.2387166 194.36712,94.4625742 194.090978,94.4625742 L188.090978,94.4625742 C187.814835,94.4625742 187.590978,94.2387166 187.590978,93.9625742 C187.590978,93.6864318 187.814835,93.4625742 188.090978,93.4625742 L194.090978,93.4625742 Z M182.090978,93.4625742 C182.36712,93.4625742 182.590978,93.6864318 182.590978,93.9625742 C182.590978,94.2387166 182.36712,94.4625742 182.090978,94.4625742 L176.090978,94.4625742 C175.814835,94.4625742 175.590978,94.2387166 175.590978,93.9625742 C175.590978,93.6864318 175.814835,93.4625742 176.090978,93.4625742 L182.090978,93.4625742 Z M170.090978,93.4625742 C170.36712,93.4625742 170.590978,93.6864318 170.590978,93.9625742 C170.590978,94.2387166 170.36712,94.4625742 170.090978,94.4625742 L164.090978,94.4625742 C163.814835,94.4625742 163.590978,94.2387166 163.590978,93.9625742 C163.590978,93.6864318 163.814835,93.4625742 164.090978,93.4625742 L170.090978,93.4625742 Z M158.090978,93.4625742 C158.36712,93.4625742 158.590978,93.6864318 158.590978,93.9625742 C158.590978,94.2387166 158.36712,94.4625742 158.090978,94.4625742 L152.090978,94.4625742 C151.814835,94.4625742 151.590978,94.2387166 151.590978,93.9625742 C151.590978,93.6864318 151.814835,93.4625742 152.090978,93.4625742 L158.090978,93.4625742 Z M146.090978,93.4625742 C146.36712,93.4625742 146.590978,93.6864318 146.590978,93.9625742 C146.590978,94.2387166 146.36712,94.4625742 146.090978,94.4625742 L140.090978,94.4625742 C139.814835,94.4625742 139.590978,94.2387166 139.590978,93.9625742 C139.590978,93.6864318 139.814835,93.4625742 140.090978,93.4625742 L146.090978,93.4625742 Z M134.090978,93.4625742 C134.36712,93.4625742 134.590978,93.6864318 134.590978,93.9625742 C134.590978,94.2387166 134.36712,94.4625742 134.090978,94.4625742 L128.090978,94.4625742 C127.814835,94.4625742 127.590978,94.2387166 127.590978,93.9625742 C127.590978,93.6864318 127.814835,93.4625742 128.090978,93.4625742 L134.090978,93.4625742 Z M122.090978,93.4625742 C122.36712,93.4625742 122.590978,93.6864318 122.590978,93.9625742 C122.590978,94.2387166 122.36712,94.4625742 122.090978,94.4625742 L116.090978,94.4625742 C115.814835,94.4625742 115.590978,94.2387166 115.590978,93.9625742 C115.590978,93.6864318 115.814835,93.4625742 116.090978,93.4625742 L122.090978,93.4625742 Z M110.090978,93.4625742 C110.36712,93.4625742 110.590978,93.6864318 110.590978,93.9625742 C110.590978,94.2387166 110.36712,94.4625742 110.090978,94.4625742 L104.090978,94.4625742 C103.814835,94.4625742 103.590978,94.2387166 103.590978,93.9625742 C103.590978,93.6864318 103.814835,93.4625742 104.090978,93.4625742 L110.090978,93.4625742 Z M98.0785304,93.4805771 C98.3546242,93.4753995 98.5826398,93.6950205 98.5878174,93.9711143 C98.592995,94.2472082 98.373374,94.4752237 98.0972801,94.4804013 C96.1021222,94.5178166 94.1147363,94.6140751 92.1368291,94.7686948 C91.8615266,94.7902161 91.6209034,94.5844858 91.5993821,94.3091834 C91.5778608,94.0338809 91.783591,93.7932577 92.0588935,93.7717364 C94.056492,93.6155774 96.0636151,93.5183629 98.0785304,93.4805771 Z M86.0581315,94.4218817 C86.3316522,94.3839208 86.584158,94.5748797 86.6221189,94.8484004 C86.6600798,95.1219211 86.4691209,95.3744269 86.1956002,95.4123878 C84.2201407,95.6865546 82.2572831,96.0195434 80.3089537,96.4106549 C80.0382125,96.465004 79.7746748,96.2895835 79.7203257,96.0188424 C79.6659766,95.7481012 79.841397,95.4845634 80.1121382,95.4302143 C82.0801319,95.0351554 84.0627806,94.6988091 86.0581315,94.4218817 Z M74.2308572,96.7969754 C74.4978182,96.7263605 74.7714775,96.8855303 74.8420924,97.1524913 C74.9127074,97.4194522 74.7535375,97.6931115 74.4865766,97.7637265 C72.5615485,98.2729237 70.6543835,98.8396959 68.7671793,99.4630893 C68.5049721,99.5497033 68.2221966,99.4073568 68.1355826,99.1451496 C68.0489687,98.8829424 68.1913151,98.6001669 68.4535223,98.5135529 C70.359845,97.8838442 72.286331,97.3113302 74.2308572,96.7969754 Z M62.7528125,100.591008 C63.0092691,100.488614 63.3001754,100.613506 63.4025698,100.869963 C63.5049643,101.126419 63.3800722,101.417325 63.1236156,101.51972 C61.274201,102.258129 59.4482724,103.051974 57.6480446,103.900016 C57.3982327,104.017696 57.1003215,103.910582 56.9826414,103.66077 C56.8649612,103.410958 56.9720751,103.113047 57.2218871,102.995367 C59.040304,102.138756 60.884692,101.336886 62.7528125,100.591008 Z M51.8661103,105.717615 C52.1084167,105.585168 52.4122144,105.674227 52.5446614,105.916533 C52.6771084,106.15884 52.5880497,106.462637 52.3457433,106.595084 C50.5995388,107.549576 48.8824961,108.556315 47.1968619,109.613776 C46.9629397,109.760524 46.6543454,109.689855 46.5075973,109.455933 C46.3608492,109.222011 46.4315177,108.913417 46.6654399,108.766669 C48.3680171,107.698578 50.1023301,106.681714 51.8661103,105.717615 Z M41.6330868,112.138871 C41.8577601,111.978321 42.1700458,112.030302 42.3305965,112.254975 C42.4911471,112.479649 42.4391655,112.791935 42.2144922,112.952485 C40.5950761,114.109714 39.0105003,115.31523 37.4629619,116.567243 C37.2482803,116.740928 36.9334471,116.707693 36.7597622,116.493012 C36.5860774,116.27833 36.6193118,115.963497 36.8339933,115.789812 C38.3970155,114.525273 39.9974524,113.307689 41.6330868,112.138871 Z M32.2275182,119.7516 C32.4313736,119.565328 32.7476351,119.579581 32.933908,119.783436 C33.1201808,119.987292 33.1059273,120.303553 32.9020719,120.489826 C31.4322454,121.83288 30.0027198,123.219575 28.6155581,124.647894 C28.4231709,124.845989 28.1066222,124.850617 27.9085268,124.65823 C27.7104315,124.465843 27.705804,124.149294 27.8981912,123.951198 C29.2992071,122.508614 30.7430101,121.108069 32.2275182,119.7516 Z M23.8748349,128.345912 C24.0552183,128.136827 24.3709446,128.11356 24.5800294,128.293944 C24.7891141,128.474327 24.8123811,128.790054 24.6319976,128.999138 C23.3319036,130.506094 22.0770548,132.051511 20.8693068,133.633222 C20.7017213,133.852698 20.387946,133.894763 20.1684699,133.727178 C19.9489939,133.559592 19.9069283,133.245817 20.0745138,133.026341 C21.2943453,131.428805 22.5617433,129.867933 23.8748349,128.345912 Z M16.5505242,137.940227 C16.7046485,137.711097 17.015337,137.650294 17.2444665,137.804418 C17.473596,137.958542 17.5343997,138.269231 17.3802755,138.49836 C16.2691634,140.1502 15.2077588,141.834983 14.1976607,143.550465 C14.0575489,143.788422 13.751064,143.86774 13.5131075,143.727628 C13.275151,143.587517 13.1958322,143.281032 13.3359441,143.043075 C14.3561942,141.310351 15.4282594,139.608647 16.5505242,137.940227 Z M10.4234935,148.349201 C10.5489957,148.103226 10.8501377,148.005563 11.0961129,148.131066 C11.3420881,148.256568 11.4397507,148.55771 11.3142484,148.803685 C10.4099365,150.57607 9.55898325,152.375651 8.76270215,154.200198 C8.65224709,154.453287 8.357536,154.568915 8.10444651,154.45846 C7.85135702,154.348005 7.73572896,154.053294 7.84618401,153.800205 C8.65051022,151.957224 9.51005599,150.139472 10.4234935,148.349201 Z M5.59020323,159.429857 C5.68508579,159.170528 5.97223159,159.037217 6.23156132,159.132099 C6.49089106,159.226982 6.62420183,159.514128 6.52931927,159.773458 C5.84587621,161.641421 5.21857032,163.530846 4.64842924,165.439596 C4.56939627,165.704187 4.290834,165.854612 4.02624299,165.775579 C3.76165198,165.696546 3.61122747,165.417984 3.69026044,165.153393 C4.26617739,163.225306 4.8998381,161.31674 5.59020323,159.429857 Z M2.13192255,171.014834 C2.19472975,170.745929 2.46363556,170.578854 2.7325405,170.641661 C3.00144545,170.704468 3.16852068,170.973374 3.10571349,171.242279 C2.65368404,173.177614 2.25949976,175.128857 1.92392283,177.094031 C1.87744104,177.366233 1.61909661,177.549215 1.34689437,177.502734 C1.07469214,177.456252 0.891709564,177.197907 0.938191346,176.925705 C1.27715552,174.940695 1.67532262,172.969737 2.13192255,171.014834 Z M0.0974641488,182.941161 C0.127408955,182.666647 0.374221559,182.468384 0.648735529,182.498329 C0.923249499,182.528274 1.12151198,182.775086 1.09156717,183.0496 C0.876263531,185.02336 0.719404752,187.00785 0.621524824,189.001302 C0.60798235,189.277112 0.373415741,189.489722 0.0976056387,189.47618 C-0.178204464,189.462637 -0.390814385,189.228071 -0.377271911,188.95226 C-0.278417402,186.93896 -0.119992944,184.934662 0.0974641488,182.941161 Z M-0.5,194.9225 C-0.5,194.646358 -0.276142375,194.4225 -3.99759916e-13,194.4225 C0.276142375,194.4225 0.5,194.646358 0.5,194.9225 L0.5,200.9225 C0.5,201.198642 0.276142375,201.4225 -4.28007713e-13,201.4225 C-0.276142375,201.4225 -0.5,201.198642 -0.5,200.9225 L-0.5,194.9225 Z M-0.5,206.9225 C-0.5,206.646358 -0.276142375,206.4225 -4.4818471e-13,206.4225 C0.276142375,206.4225 0.5,206.646358 0.5,206.9225 L0.5,212.9225 C0.5,213.198642 0.276142375,213.4225 -4.76432507e-13,213.4225 C-0.276142375,213.4225 -0.5,213.198642 -0.5,212.9225 L-0.5,206.9225 Z"></path>
            </g>
        </g>
    </g>
</svg>