<?xml version="1.0" encoding="UTF-8"?>
<svg width="849px" height="256px" viewBox="0 0 849 256" version="1.1" xmlns="http://www.w3.org/2000/svg" xmlns:xlink="http://www.w3.org/1999/xlink">
    <!-- Generator: Sketch 52.6 (67491) - http://www.bohemiancoding.com/sketch -->
    <title>Path</title>
    <desc>Created with Sketch.</desc>
    <g id="Om-Change" stroke="none" stroke-width="1" fill="none" fill-rule="evenodd">
        <g id="Om-Change-/-Process" transform="translate(-347.000000, -1492.000000)" fill="#979797" fill-rule="nonzero">
            <g id="Om-Change-/-Process-Arrows" transform="translate(350.812500, 1497.000000)">
                <path id="Path" d="M1.18359375,4.60749715 L1.18359375,10.1349615 C1.18359375,10.4111039 0.959736125,10.6349615 0.68359375,10.6349615 C0.407451375,10.6349615 0.18359375,10.4111039 0.18359375,10.1349615 L0.18359375,4.60749715 C-2.06638148,4.35877501 -3.81640625,2.45123837 -3.81640625,0.134961539 C-3.81640625,-2.35031984 -1.80168762,-4.36503846 0.68359375,-4.36503846 C3.16887512,-4.36503846 5.18359375,-2.35031984 5.18359375,0.134961539 C5.18359375,2.45123837 3.43356898,4.35877501 1.18359375,4.60749715 Z M0.68359375,-3.36503846 C-1.24940287,-3.36503846 -2.81640625,-1.79803509 -2.81640625,0.134961539 C-2.81640625,2.06795816 -1.24940287,3.63496154 0.68359375,3.63496154 C2.61659037,3.63496154 4.18359375,2.06795816 4.18359375,0.134961539 C4.18359375,-1.79803509 2.61659037,-3.36503846 0.68359375,-3.36503846 Z M840.683594,250.634962 L836.183594,241.634962 L845.183594,241.634962 L840.683594,250.634962 Z M0.18359375,16.1349615 C0.18359375,15.8588192 0.407451375,15.6349615 0.68359375,15.6349615 C0.959736125,15.6349615 1.18359375,15.8588192 1.18359375,16.1349615 L1.18359375,21.9625742 C1.18361916,22.0506209 1.18361916,22.0506209 1.18374619,22.1386436 C1.1842244,22.4147856 0.960754778,22.6390305 0.684612817,22.6395088 C0.408470856,22.639987 0.184225902,22.4165173 0.183747693,22.1403754 C0.183619414,22.0514867 0.183619414,22.0514867 0.18359375,21.9625742 L0.18359375,16.1349615 Z M0.371647874,28.1612191 C0.354874847,27.8855866 0.564721916,27.6485451 0.840354419,27.6317721 C1.11598692,27.614999 1.35302844,27.8248461 1.36980146,28.1004786 C1.49101582,30.0924039 1.67122019,32.0749015 1.90986012,34.0461819 C1.94304716,34.3203228 1.74771547,34.5694614 1.47357457,34.6026484 C1.19943367,34.6358354 0.950295154,34.4405037 0.917108114,34.1663628 C0.676077584,32.1753348 0.494071411,30.1730151 0.371647874,28.1612191 Z M1.82572967,40.1530552 C1.77606633,39.8814154 1.95601377,39.6209478 2.22765354,39.5712845 C2.49929331,39.5216211 2.75976094,39.7015686 2.80942429,39.9732083 C3.16813203,41.9352045 3.58541725,43.8827472 4.0604922,45.8138392 C4.12646004,46.0819863 3.96256138,46.3528399 3.6944143,46.4188078 C3.42626722,46.4847756 3.15541357,46.320877 3.08944573,46.0527299 C2.60956485,44.1021027 2.18806079,42.1348699 1.82572967,40.1530552 Z M4.70625928,51.8618437 C4.62420727,51.5981733 4.77143806,51.3179099 5.03510845,51.2358579 C5.29877885,51.1538059 5.57904224,51.3010367 5.66109425,51.5647071 C6.25303412,53.4668787 6.90195886,55.3491979 7.60681414,57.2095142 C7.70465431,57.4677426 7.57463395,57.7563932 7.31640554,57.8542334 C7.05817713,57.9520735 6.76952651,57.8220532 6.67168634,57.5638248 C5.95969339,55.6846701 5.30419559,53.7832847 4.70625928,51.8618437 Z M8.97341498,63.126457 C8.86019266,62.8745933 8.97258371,62.5786326 9.2244474,62.4654103 C9.47631109,62.352188 9.77227177,62.464579 9.88549409,62.7164427 C10.7015718,64.5318124 11.5720335,66.3217067 12.49554,68.0838918 C12.6237217,68.3284813 12.5293546,68.6306722 12.2847651,68.7588539 C12.0401756,68.8870357 11.7379847,68.7926686 11.6098029,68.5480791 C10.6769815,66.7681199 9.79773435,64.9601602 8.97341498,63.126457 Z M14.5790731,73.8206366 C14.4363812,73.5842182 14.5123616,73.2768886 14.7487799,73.1341968 C14.9851983,72.9915049 15.2925278,73.0674852 15.4352197,73.3039036 C16.4636152,75.0077958 17.5429406,76.6804915 18.6715734,78.3197514 C18.8281706,78.5471979 18.770736,78.8585269 18.5432895,79.0151241 C18.3158429,79.1717214 18.004514,79.1142867 17.8479167,78.8868402 C16.7079605,77.2311337 15.6177995,75.5416457 14.5790731,73.8206366 Z M21.4300353,83.7689219 C21.2600691,83.5512844 21.2987144,83.2370694 21.516352,83.0671033 C21.7339895,82.8971371 22.0482045,82.9357824 22.2181706,83.1534199 C23.4428893,84.7216423 24.7142803,86.2530828 26.0304679,87.7455852 C26.213113,87.9526972 26.1932786,88.2686578 25.9861666,88.4513028 C25.7790546,88.6339479 25.4630941,88.6141136 25.280449,88.4070016 C23.9511059,86.8995814 22.6670035,85.3528296 21.4300353,83.7689219 Z M29.4231611,92.8300647 C29.2284362,92.6342668 29.229306,92.3176855 29.4251039,92.1229606 C29.6209018,91.9282357 29.9374831,91.9291055 30.132208,92.1249034 C31.5354303,93.5358578 32.9804618,94.9047271 34.4652261,96.2295178 C34.6712725,96.4133641 34.6892693,96.7294346 34.505423,96.9354811 C34.3215767,97.1415275 34.0055061,97.1595243 33.7994597,96.975678 C32.299863,95.6376531 30.8403983,94.2551113 29.4231611,92.8300647 Z M38.3730469,100.819788 C38.1564935,100.648443 38.1198451,100.333989 38.2911905,100.117436 C38.4625359,99.9008822 38.77699,99.8642339 38.9935434,100.035579 C40.5541295,101.270375 42.1512342,102.458288 43.7826543,103.597549 C44.0090569,103.755651 44.0644251,104.067354 43.9063225,104.293757 C43.7482199,104.52016 43.4365167,104.575528 43.210114,104.417425 C41.5623493,103.26675 39.9492524,102.066943 38.3730469,100.819788 Z M48.275219,107.73254 C48.03972,107.588336 47.9657108,107.280525 48.1099148,107.045026 C48.2541189,106.809527 48.5619291,106.735518 48.7974281,106.879722 C50.4943861,107.918827 52.222237,108.906863 53.9787339,109.842333 C54.2224655,109.972139 54.3148205,110.274951 54.1850147,110.518683 C54.0552089,110.762414 53.752397,110.854769 53.5086655,110.724963 C51.7344806,109.780073 49.9892421,108.782094 48.275219,107.73254 Z M58.9374301,113.408754 C58.6862956,113.293923 58.5757995,112.99725 58.6906302,112.746116 C58.8054609,112.494981 59.1021343,112.384485 59.3532688,112.499316 C61.1630243,113.326822 62.9979407,114.099849 64.8558101,114.817185 C65.1134175,114.916648 65.2416181,115.206112 65.1421543,115.463719 C65.0426904,115.721327 64.753227,115.849527 64.4956197,115.750063 C62.6189525,115.02547 60.7654787,114.244625 58.9374301,113.408754 Z M70.2134535,117.760378 C69.9502804,117.676745 69.8047344,117.395603 69.8883674,117.132429 C69.9720005,116.869256 70.2531425,116.72371 70.5163157,116.807343 C72.4114003,117.409577 74.3259429,117.954946 76.2578565,118.442521 C76.5256034,118.510094 76.6878758,118.781926 76.6203021,119.049672 C76.5527283,119.317419 76.2808973,119.479692 76.0131504,119.412118 C74.0616725,118.919606 72.1277361,118.368712 70.2134535,117.760378 Z M81.9433785,120.718344 C81.6720205,120.667163 81.4935312,120.405694 81.5447116,120.134336 C81.595892,119.862978 81.857361,119.684489 82.1287191,119.735669 C84.0809598,120.103878 86.0472146,120.413906 88.0255776,120.665077 C88.299521,120.699857 88.4934016,120.950126 88.458622,121.224069 C88.4238424,121.498013 88.173573,121.691893 87.8996296,121.657114 C85.9013678,121.403417 83.9153067,121.090266 81.9433785,120.718344 Z M93.9448211,122.240205 C93.669282,122.221962 93.4607028,121.983804 93.4789463,121.708265 C93.4971898,121.432726 93.7353476,121.224147 94.0108867,121.24239 C95.991249,121.37351 97.9806256,121.446242 99.9773303,121.46012 C100.253466,121.46204 100.475762,121.687448 100.473843,121.963584 C100.471924,122.239719 100.246515,122.462016 99.9703797,122.460096 C97.9539492,122.44608 95.9448591,122.372628 93.9448211,122.240205 Z M105.906884,122.462574 C105.630742,122.462574 105.406884,122.238717 105.406884,121.962574 C105.406884,121.686432 105.630742,121.462574 105.906884,121.462574 L111.906884,121.462574 C112.183027,121.462574 112.406884,121.686432 112.406884,121.962574 C112.406884,122.238717 112.183027,122.462574 111.906884,122.462574 L105.906884,122.462574 Z M117.906884,122.462574 C117.630742,122.462574 117.406884,122.238717 117.406884,121.962574 C117.406884,121.686432 117.630742,121.462574 117.906884,121.462574 L123.906884,121.462574 C124.183027,121.462574 124.406884,121.686432 124.406884,121.962574 C124.406884,122.238717 124.183027,122.462574 123.906884,122.462574 L117.906884,122.462574 Z M129.906884,122.462574 C129.630742,122.462574 129.406884,122.238717 129.406884,121.962574 C129.406884,121.686432 129.630742,121.462574 129.906884,121.462574 L135.906884,121.462574 C136.183027,121.462574 136.406884,121.686432 136.406884,121.962574 C136.406884,122.238717 136.183027,122.462574 135.906884,122.462574 L129.906884,122.462574 Z M141.906884,122.462574 C141.630742,122.462574 141.406884,122.238717 141.406884,121.962574 C141.406884,121.686432 141.630742,121.462574 141.906884,121.462574 L147.906884,121.462574 C148.183027,121.462574 148.406884,121.686432 148.406884,121.962574 C148.406884,122.238717 148.183027,122.462574 147.906884,122.462574 L141.906884,122.462574 Z M153.906884,122.462574 C153.630742,122.462574 153.406884,122.238717 153.406884,121.962574 C153.406884,121.686432 153.630742,121.462574 153.906884,121.462574 L159.906884,121.462574 C160.183027,121.462574 160.406884,121.686432 160.406884,121.962574 C160.406884,122.238717 160.183027,122.462574 159.906884,122.462574 L153.906884,122.462574 Z M165.906884,122.462574 C165.630742,122.462574 165.406884,122.238717 165.406884,121.962574 C165.406884,121.686432 165.630742,121.462574 165.906884,121.462574 L171.906884,121.462574 C172.183027,121.462574 172.406884,121.686432 172.406884,121.962574 C172.406884,122.238717 172.183027,122.462574 171.906884,122.462574 L165.906884,122.462574 Z M177.906884,122.462574 C177.630742,122.462574 177.406884,122.238717 177.406884,121.962574 C177.406884,121.686432 177.630742,121.462574 177.906884,121.462574 L183.906884,121.462574 C184.183027,121.462574 184.406884,121.686432 184.406884,121.962574 C184.406884,122.238717 184.183027,122.462574 183.906884,122.462574 L177.906884,122.462574 Z M189.906884,122.462574 C189.630742,122.462574 189.406884,122.238717 189.406884,121.962574 C189.406884,121.686432 189.630742,121.462574 189.906884,121.462574 L195.906884,121.462574 C196.183027,121.462574 196.406884,121.686432 196.406884,121.962574 C196.406884,122.238717 196.183027,122.462574 195.906884,122.462574 L189.906884,122.462574 Z M201.906884,122.462574 C201.630742,122.462574 201.406884,122.238717 201.406884,121.962574 C201.406884,121.686432 201.630742,121.462574 201.906884,121.462574 L207.906884,121.462574 C208.183027,121.462574 208.406884,121.686432 208.406884,121.962574 C208.406884,122.238717 208.183027,122.462574 207.906884,122.462574 L201.906884,122.462574 Z M213.906884,122.462574 C213.630742,122.462574 213.406884,122.238717 213.406884,121.962574 C213.406884,121.686432 213.630742,121.462574 213.906884,121.462574 L219.906884,121.462574 C220.183027,121.462574 220.406884,121.686432 220.406884,121.962574 C220.406884,122.238717 220.183027,122.462574 219.906884,122.462574 L213.906884,122.462574 Z M225.906884,122.462574 C225.630742,122.462574 225.406884,122.238717 225.406884,121.962574 C225.406884,121.686432 225.630742,121.462574 225.906884,121.462574 L231.906884,121.462574 C232.183027,121.462574 232.406884,121.686432 232.406884,121.962574 C232.406884,122.238717 232.183027,122.462574 231.906884,122.462574 L225.906884,122.462574 Z M237.906884,122.462574 C237.630742,122.462574 237.406884,122.238717 237.406884,121.962574 C237.406884,121.686432 237.630742,121.462574 237.906884,121.462574 L243.906884,121.462574 C244.183027,121.462574 244.406884,121.686432 244.406884,121.962574 C244.406884,122.238717 244.183027,122.462574 243.906884,122.462574 L237.906884,122.462574 Z M249.906884,122.462574 C249.630742,122.462574 249.406884,122.238717 249.406884,121.962574 C249.406884,121.686432 249.630742,121.462574 249.906884,121.462574 L255.906884,121.462574 C256.183027,121.462574 256.406884,121.686432 256.406884,121.962574 C256.406884,122.238717 256.183027,122.462574 255.906884,122.462574 L249.906884,122.462574 Z M261.906884,122.462574 C261.630742,122.462574 261.406884,122.238717 261.406884,121.962574 C261.406884,121.686432 261.630742,121.462574 261.906884,121.462574 L267.906884,121.462574 C268.183027,121.462574 268.406884,121.686432 268.406884,121.962574 C268.406884,122.238717 268.183027,122.462574 267.906884,122.462574 L261.906884,122.462574 Z M273.906884,122.462574 C273.630742,122.462574 273.406884,122.238717 273.406884,121.962574 C273.406884,121.686432 273.630742,121.462574 273.906884,121.462574 L279.906884,121.462574 C280.183027,121.462574 280.406884,121.686432 280.406884,121.962574 C280.406884,122.238717 280.183027,122.462574 279.906884,122.462574 L273.906884,122.462574 Z M285.906884,122.462574 C285.630742,122.462574 285.406884,122.238717 285.406884,121.962574 C285.406884,121.686432 285.630742,121.462574 285.906884,121.462574 L291.906884,121.462574 C292.183027,121.462574 292.406884,121.686432 292.406884,121.962574 C292.406884,122.238717 292.183027,122.462574 291.906884,122.462574 L285.906884,122.462574 Z M297.906884,122.462574 C297.630742,122.462574 297.406884,122.238717 297.406884,121.962574 C297.406884,121.686432 297.630742,121.462574 297.906884,121.462574 L303.906884,121.462574 C304.183027,121.462574 304.406884,121.686432 304.406884,121.962574 C304.406884,122.238717 304.183027,122.462574 303.906884,122.462574 L297.906884,122.462574 Z M309.906884,122.462574 C309.630742,122.462574 309.406884,122.238717 309.406884,121.962574 C309.406884,121.686432 309.630742,121.462574 309.906884,121.462574 L315.906884,121.462574 C316.183027,121.462574 316.406884,121.686432 316.406884,121.962574 C316.406884,122.238717 316.183027,122.462574 315.906884,122.462574 L309.906884,122.462574 Z M321.906884,122.462574 C321.630742,122.462574 321.406884,122.238717 321.406884,121.962574 C321.406884,121.686432 321.630742,121.462574 321.906884,121.462574 L327.906884,121.462574 C328.183027,121.462574 328.406884,121.686432 328.406884,121.962574 C328.406884,122.238717 328.183027,122.462574 327.906884,122.462574 L321.906884,122.462574 Z M333.906884,122.462574 C333.630742,122.462574 333.406884,122.238717 333.406884,121.962574 C333.406884,121.686432 333.630742,121.462574 333.906884,121.462574 L339.906884,121.462574 C340.183027,121.462574 340.406884,121.686432 340.406884,121.962574 C340.406884,122.238717 340.183027,122.462574 339.906884,122.462574 L333.906884,122.462574 Z M345.906884,122.462574 C345.630742,122.462574 345.406884,122.238717 345.406884,121.962574 C345.406884,121.686432 345.630742,121.462574 345.906884,121.462574 L351.906884,121.462574 C352.183027,121.462574 352.406884,121.686432 352.406884,121.962574 C352.406884,122.238717 352.183027,122.462574 351.906884,122.462574 L345.906884,122.462574 Z M357.906884,122.462574 C357.630742,122.462574 357.406884,122.238717 357.406884,121.962574 C357.406884,121.686432 357.630742,121.462574 357.906884,121.462574 L363.906884,121.462574 C364.183027,121.462574 364.406884,121.686432 364.406884,121.962574 C364.406884,122.238717 364.183027,122.462574 363.906884,122.462574 L357.906884,122.462574 Z M369.906884,122.462574 C369.630742,122.462574 369.406884,122.238717 369.406884,121.962574 C369.406884,121.686432 369.630742,121.462574 369.906884,121.462574 L375.906884,121.462574 C376.183027,121.462574 376.406884,121.686432 376.406884,121.962574 C376.406884,122.238717 376.183027,122.462574 375.906884,122.462574 L369.906884,122.462574 Z M381.906884,122.462574 C381.630742,122.462574 381.406884,122.238717 381.406884,121.962574 C381.406884,121.686432 381.630742,121.462574 381.906884,121.462574 L387.906884,121.462574 C388.183027,121.462574 388.406884,121.686432 388.406884,121.962574 C388.406884,122.238717 388.183027,122.462574 387.906884,122.462574 L381.906884,122.462574 Z M393.906884,122.462574 C393.630742,122.462574 393.406884,122.238717 393.406884,121.962574 C393.406884,121.686432 393.630742,121.462574 393.906884,121.462574 L399.906884,121.462574 C400.183027,121.462574 400.406884,121.686432 400.406884,121.962574 C400.406884,122.238717 400.183027,122.462574 399.906884,122.462574 L393.906884,122.462574 Z M405.906884,122.462574 C405.630742,122.462574 405.406884,122.238717 405.406884,121.962574 C405.406884,121.686432 405.630742,121.462574 405.906884,121.462574 L411.906884,121.462574 C412.183027,121.462574 412.406884,121.686432 412.406884,121.962574 C412.406884,122.238717 412.183027,122.462574 411.906884,122.462574 L405.906884,122.462574 Z M417.906884,122.462574 C417.630742,122.462574 417.406884,122.238717 417.406884,121.962574 C417.406884,121.686432 417.630742,121.462574 417.906884,121.462574 L423.906884,121.462574 C424.183027,121.462574 424.406884,121.686432 424.406884,121.962574 C424.406884,122.238717 424.183027,122.462574 423.906884,122.462574 L417.906884,122.462574 Z M429.906884,122.462574 C429.630742,122.462574 429.406884,122.238717 429.406884,121.962574 C429.406884,121.686432 429.630742,121.462574 429.906884,121.462574 L435.906884,121.462574 C436.183027,121.462574 436.406884,121.686432 436.406884,121.962574 C436.406884,122.238717 436.183027,122.462574 435.906884,122.462574 L429.906884,122.462574 Z M441.906884,122.462574 C441.630742,122.462574 441.406884,122.238717 441.406884,121.962574 C441.406884,121.686432 441.630742,121.462574 441.906884,121.462574 L447.906884,121.462574 C448.183027,121.462574 448.406884,121.686432 448.406884,121.962574 C448.406884,122.238717 448.183027,122.462574 447.906884,122.462574 L441.906884,122.462574 Z M453.906884,122.462574 C453.630742,122.462574 453.406884,122.238717 453.406884,121.962574 C453.406884,121.686432 453.630742,121.462574 453.906884,121.462574 L459.906884,121.462574 C460.183027,121.462574 460.406884,121.686432 460.406884,121.962574 C460.406884,122.238717 460.183027,122.462574 459.906884,122.462574 L453.906884,122.462574 Z M465.906884,122.462574 C465.630742,122.462574 465.406884,122.238717 465.406884,121.962574 C465.406884,121.686432 465.630742,121.462574 465.906884,121.462574 L471.906884,121.462574 C472.183027,121.462574 472.406884,121.686432 472.406884,121.962574 C472.406884,122.238717 472.183027,122.462574 471.906884,122.462574 L465.906884,122.462574 Z M477.906884,122.462574 C477.630742,122.462574 477.406884,122.238717 477.406884,121.962574 C477.406884,121.686432 477.630742,121.462574 477.906884,121.462574 L483.906884,121.462574 C484.183027,121.462574 484.406884,121.686432 484.406884,121.962574 C484.406884,122.238717 484.183027,122.462574 483.906884,122.462574 L477.906884,122.462574 Z M489.906884,122.462574 C489.630742,122.462574 489.406884,122.238717 489.406884,121.962574 C489.406884,121.686432 489.630742,121.462574 489.906884,121.462574 L495.906884,121.462574 C496.183027,121.462574 496.406884,121.686432 496.406884,121.962574 C496.406884,122.238717 496.183027,122.462574 495.906884,122.462574 L489.906884,122.462574 Z M501.906884,122.462574 C501.630742,122.462574 501.406884,122.238717 501.406884,121.962574 C501.406884,121.686432 501.630742,121.462574 501.906884,121.462574 L507.906884,121.462574 C508.183027,121.462574 508.406884,121.686432 508.406884,121.962574 C508.406884,122.238717 508.183027,122.462574 507.906884,122.462574 L501.906884,122.462574 Z M513.906884,122.462574 C513.630742,122.462574 513.406884,122.238717 513.406884,121.962574 C513.406884,121.686432 513.630742,121.462574 513.906884,121.462574 L519.906884,121.462574 C520.183027,121.462574 520.406884,121.686432 520.406884,121.962574 C520.406884,122.238717 520.183027,122.462574 519.906884,122.462574 L513.906884,122.462574 Z M525.906884,122.462574 C525.630742,122.462574 525.406884,122.238717 525.406884,121.962574 C525.406884,121.686432 525.630742,121.462574 525.906884,121.462574 L531.906884,121.462574 C532.183027,121.462574 532.406884,121.686432 532.406884,121.962574 C532.406884,122.238717 532.183027,122.462574 531.906884,122.462574 L525.906884,122.462574 Z M537.906884,122.462574 C537.630742,122.462574 537.406884,122.238717 537.406884,121.962574 C537.406884,121.686432 537.630742,121.462574 537.906884,121.462574 L543.906884,121.462574 C544.183027,121.462574 544.406884,121.686432 544.406884,121.962574 C544.406884,122.238717 544.183027,122.462574 543.906884,122.462574 L537.906884,122.462574 Z M549.906884,122.462574 C549.630742,122.462574 549.406884,122.238717 549.406884,121.962574 C549.406884,121.686432 549.630742,121.462574 549.906884,121.462574 L555.906884,121.462574 C556.183027,121.462574 556.406884,121.686432 556.406884,121.962574 C556.406884,122.238717 556.183027,122.462574 555.906884,122.462574 L549.906884,122.462574 Z M561.906884,122.462574 C561.630742,122.462574 561.406884,122.238717 561.406884,121.962574 C561.406884,121.686432 561.630742,121.462574 561.906884,121.462574 L567.906884,121.462574 C568.183027,121.462574 568.406884,121.686432 568.406884,121.962574 C568.406884,122.238717 568.183027,122.462574 567.906884,122.462574 L561.906884,122.462574 Z M573.906884,122.462574 C573.630742,122.462574 573.406884,122.238717 573.406884,121.962574 C573.406884,121.686432 573.630742,121.462574 573.906884,121.462574 L579.906884,121.462574 C580.183027,121.462574 580.406884,121.686432 580.406884,121.962574 C580.406884,122.238717 580.183027,122.462574 579.906884,122.462574 L573.906884,122.462574 Z M585.906884,122.462574 C585.630742,122.462574 585.406884,122.238717 585.406884,121.962574 C585.406884,121.686432 585.630742,121.462574 585.906884,121.462574 L591.906884,121.462574 C592.183027,121.462574 592.406884,121.686432 592.406884,121.962574 C592.406884,122.238717 592.183027,122.462574 591.906884,122.462574 L585.906884,122.462574 Z M597.906884,122.462574 C597.630742,122.462574 597.406884,122.238717 597.406884,121.962574 C597.406884,121.686432 597.630742,121.462574 597.906884,121.462574 L603.906884,121.462574 C604.183027,121.462574 604.406884,121.686432 604.406884,121.962574 C604.406884,122.238717 604.183027,122.462574 603.906884,122.462574 L597.906884,122.462574 Z M609.906884,122.462574 C609.630742,122.462574 609.406884,122.238717 609.406884,121.962574 C609.406884,121.686432 609.630742,121.462574 609.906884,121.462574 L615.906884,121.462574 C616.183027,121.462574 616.406884,121.686432 616.406884,121.962574 C616.406884,122.238717 616.183027,122.462574 615.906884,122.462574 L609.906884,122.462574 Z M621.906884,122.462574 C621.630742,122.462574 621.406884,122.238717 621.406884,121.962574 C621.406884,121.686432 621.630742,121.462574 621.906884,121.462574 L627.906884,121.462574 C628.183027,121.462574 628.406884,121.686432 628.406884,121.962574 C628.406884,122.238717 628.183027,122.462574 627.906884,122.462574 L621.906884,122.462574 Z M633.906884,122.462574 C633.630742,122.462574 633.406884,122.238717 633.406884,121.962574 C633.406884,121.686432 633.630742,121.462574 633.906884,121.462574 L639.906884,121.462574 C640.183027,121.462574 640.406884,121.686432 640.406884,121.962574 C640.406884,122.238717 640.183027,122.462574 639.906884,122.462574 L633.906884,122.462574 Z M645.906884,122.462574 C645.630742,122.462574 645.406884,122.238717 645.406884,121.962574 C645.406884,121.686432 645.630742,121.462574 645.906884,121.462574 L651.906884,121.462574 C652.183027,121.462574 652.406884,121.686432 652.406884,121.962574 C652.406884,122.238717 652.183027,122.462574 651.906884,122.462574 L645.906884,122.462574 Z M657.906884,122.462574 C657.630742,122.462574 657.406884,122.238717 657.406884,121.962574 C657.406884,121.686432 657.630742,121.462574 657.906884,121.462574 L663.906884,121.462574 C664.183027,121.462574 664.406884,121.686432 664.406884,121.962574 C664.406884,122.238717 664.183027,122.462574 663.906884,122.462574 L657.906884,122.462574 Z M669.906884,122.462574 C669.630742,122.462574 669.406884,122.238717 669.406884,121.962574 C669.406884,121.686432 669.630742,121.462574 669.906884,121.462574 L675.906884,121.462574 C676.183027,121.462574 676.406884,121.686432 676.406884,121.962574 C676.406884,122.238717 676.183027,122.462574 675.906884,122.462574 L669.906884,122.462574 Z M681.906884,122.462574 C681.630742,122.462574 681.406884,122.238717 681.406884,121.962574 C681.406884,121.686432 681.630742,121.462574 681.906884,121.462574 L687.906884,121.462574 C688.183027,121.462574 688.406884,121.686432 688.406884,121.962574 C688.406884,122.238717 688.183027,122.462574 687.906884,122.462574 L681.906884,122.462574 Z M693.906884,122.462574 C693.630742,122.462574 693.406884,122.238717 693.406884,121.962574 C693.406884,121.686432 693.630742,121.462574 693.906884,121.462574 L699.906884,121.462574 C700.183027,121.462574 700.406884,121.686432 700.406884,121.962574 C700.406884,122.238717 700.183027,122.462574 699.906884,122.462574 L693.906884,122.462574 Z M705.906884,122.462574 C705.630742,122.462574 705.406884,122.238717 705.406884,121.962574 C705.406884,121.686432 705.630742,121.462574 705.906884,121.462574 L711.906884,121.462574 C712.183027,121.462574 712.406884,121.686432 712.406884,121.962574 C712.406884,122.238717 712.183027,122.462574 711.906884,122.462574 L705.906884,122.462574 Z M717.906884,122.462574 C717.630742,122.462574 717.406884,122.238717 717.406884,121.962574 C717.406884,121.686432 717.630742,121.462574 717.906884,121.462574 L723.906884,121.462574 C724.183027,121.462574 724.406884,121.686432 724.406884,121.962574 C724.406884,122.238717 724.183027,122.462574 723.906884,122.462574 L717.906884,122.462574 Z M729.906884,122.462574 C729.630742,122.462574 729.406884,122.238717 729.406884,121.962574 C729.406884,121.686432 729.630742,121.462574 729.906884,121.462574 L735.906884,121.462574 C736.183027,121.462574 736.406884,121.686432 736.406884,121.962574 C736.406884,122.238717 736.183027,122.462574 735.906884,122.462574 L729.906884,122.462574 Z M741.904529,122.469911 C741.628406,122.466591 741.407256,122.240058 741.410576,121.963935 C741.413896,121.687813 741.640429,121.466663 741.916551,121.469983 C743.933149,121.494229 745.942208,121.577956 747.942003,121.72069 C748.217445,121.740349 748.424797,121.979576 748.405138,122.255017 C748.385478,122.530459 748.146252,122.737811 747.87081,122.718152 C745.890705,122.576824 743.901379,122.493919 741.904529,122.469911 Z M753.808836,123.320514 C753.53506,123.284438 753.342366,123.033254 753.378442,122.759478 C753.414518,122.485702 753.665702,122.293008 753.939478,122.329084 C755.936402,122.592221 757.920924,122.914787 759.891104,123.296092 C760.162216,123.348562 760.339459,123.610877 760.286989,123.881989 C760.234519,124.1531 759.972204,124.330344 759.701092,124.277874 C757.750589,123.900377 755.785866,123.581029 753.808836,123.320514 Z M765.536594,125.591475 C765.269152,125.522707 765.108094,125.250154 765.176862,124.982711 C765.245631,124.715269 765.518183,124.554211 765.785626,124.62298 C767.734855,125.12419 769.666338,125.683723 771.577958,126.300628 C771.840755,126.385436 771.985044,126.667225 771.900236,126.930022 C771.815428,127.192819 771.533638,127.337108 771.270841,127.2523 C769.378393,126.641582 767.46628,126.08766 765.536594,125.591475 Z M776.924809,129.26866 C776.66765,129.16804 776.540751,128.878004 776.64137,128.620846 C776.74199,128.363688 777.032026,128.236788 777.289184,128.337407 C779.16294,129.07056 781.01328,129.859889 782.837967,130.704157 C783.088583,130.820115 783.197745,131.117282 783.081787,131.367898 C782.965829,131.618514 782.668662,131.727676 782.418046,131.611718 C780.611615,130.775897 778.779799,129.99447 776.924809,129.26866 Z M787.734508,134.267995 C787.491292,134.137226 787.400135,133.834052 787.530904,133.590835 C787.661673,133.347619 787.964847,133.256462 788.208064,133.387231 C789.979101,134.339455 791.720983,135.344687 793.431437,136.401403 C793.666362,136.54654 793.73915,136.854641 793.594014,137.089567 C793.448877,137.324492 793.140776,137.39728 792.905851,137.252144 C791.212423,136.205946 789.487893,135.210727 787.734508,134.267995 Z M797.912389,140.55753 C797.686623,140.39852 797.632507,140.086597 797.791517,139.860831 C797.950527,139.635065 798.26245,139.580948 798.488216,139.739958 C800.131558,140.897385 801.740035,142.103812 803.311425,143.357444 C803.527289,143.529657 803.562674,143.844256 803.390461,144.06012 C803.218248,144.275984 802.90365,144.31137 802.687786,144.139157 C801.131966,142.897946 799.539433,141.703478 797.912389,140.55753 Z M807.270365,148.02598 C807.06523,147.841118 807.048796,147.524962 807.233659,147.319827 C807.418521,147.114692 807.734677,147.098258 807.939812,147.283121 C809.43271,148.628484 810.885259,150.018155 812.295372,151.450114 C812.489127,151.646871 812.486694,151.963444 812.289936,152.1572 C812.093179,152.350955 811.776606,152.348522 811.58285,152.151765 C810.186682,150.733966 808.748497,149.358037 807.270365,148.02598 Z M815.604946,156.484969 C815.423144,156.277117 815.444262,155.96124 815.652114,155.779438 C815.859966,155.597635 816.175843,155.618753 816.357646,155.826605 C817.68167,157.340344 818.960234,158.893279 820.191447,160.483226 C820.360519,160.70156 820.320584,161.015613 820.102251,161.184685 C819.883918,161.353756 819.569864,161.313822 819.400793,161.095489 C818.181773,159.521288 816.915867,157.983727 815.604946,156.484969 Z M822.920125,165.932878 C822.764435,165.70481 822.823109,165.393712 823.051177,165.238021 C823.279245,165.082331 823.590343,165.141005 823.746033,165.369073 C824.879435,167.029372 825.962897,168.723267 826.994792,170.448495 C827.136538,170.685481 827.059331,170.992505 826.822344,171.134251 C826.585358,171.275998 826.278334,171.19879 826.136588,170.961804 C825.114959,169.253738 824.042266,167.576682 822.920125,165.932878 Z M829.0549,176.192635 C828.927697,175.947535 829.02327,175.645724 829.26837,175.51852 C829.51347,175.391316 829.815281,175.48689 829.942485,175.73199 C830.868618,177.51649 831.741015,179.328824 832.55833,181.166733 C832.670535,181.419051 832.556952,181.714556 832.304633,181.826762 C832.052315,181.938967 831.75681,181.825384 831.644604,181.573065 C830.835462,179.753534 829.971784,177.959312 829.0549,176.192635 Z M833.916883,187.13153 C833.820206,186.872864 833.951523,186.584801 834.210189,186.488124 C834.468855,186.391447 834.756918,186.522764 834.853596,186.78143 C835.556882,188.663113 836.203622,190.566798 836.792762,192.490318 C836.873632,192.754353 836.725146,193.033954 836.461111,193.114823 C836.197075,193.195693 835.917474,193.047207 835.836605,192.783172 C835.253374,190.878943 834.613119,188.994348 833.916883,187.13153 Z M837.419876,198.576219 C837.355208,198.307756 837.520416,198.037699 837.78888,197.973031 C838.057343,197.908362 838.3274,198.073571 838.392068,198.342034 C838.862199,200.293727 839.273972,202.261786 839.626603,204.244198 C839.674964,204.516073 839.493771,204.775675 839.221896,204.824036 C838.950021,204.872397 838.690419,204.691203 838.642058,204.419329 C838.292952,202.456735 837.8853,200.50837 837.419876,198.576219 Z M839.51505,210.365815 C839.483212,210.091514 839.679767,209.84334 839.954067,209.811502 C840.228368,209.779664 840.476543,209.976219 840.508381,210.250519 C840.7396,212.242582 840.911791,214.24573 841.024405,216.258157 C841.039834,216.533868 840.828833,216.769883 840.553122,216.785312 C840.277411,216.80074 840.041396,216.58974 840.025967,216.314029 C839.914464,214.321464 839.743977,212.338133 839.51505,210.365815 Z M840.183594,222.236768 C840.183594,221.960626 840.407451,221.736768 840.683594,221.736768 C840.959736,221.736768 841.183594,221.960626 841.183594,222.236768 L841.183594,228.236768 C841.183594,228.51291 840.959736,228.736768 840.683594,228.736768 C840.407451,228.736768 840.183594,228.51291 840.183594,228.236768 L840.183594,222.236768 Z M840.183594,234.236768 C840.183594,233.960626 840.407451,233.736768 840.683594,233.736768 C840.959736,233.736768 841.183594,233.960626 841.183594,234.236768 L841.183594,240.236768 C841.183594,240.51291 840.959736,240.736768 840.683594,240.736768 C840.407451,240.736768 840.183594,240.51291 840.183594,240.236768 L840.183594,234.236768 Z"></path>
            </g>
        </g>
    </g>
</svg>