<?xml version="1.0" encoding="UTF-8"?>
<svg width="16px" height="18px" viewBox="0 0 16 18" version="1.1" xmlns="http://www.w3.org/2000/svg" xmlns:xlink="http://www.w3.org/1999/xlink">
    <!-- Generator: Sketch 53 (72520) - https://sketchapp.com -->
    <title>user</title>
    <desc>Created with Sketch.</desc>
    <g id="Om-Change" stroke="none" stroke-width="1" fill="none" fill-rule="evenodd">
        <g id="Om-Change-/-About" transform="translate(-600.000000, -1175.000000)" fill="#FFFFFF">
            <g id="user" transform="translate(600.000000, 1175.007812)">
                <g id="user-shape" transform="translate(8.000000, 9.000000) scale(-1, 1) translate(-8.000000, -9.000000) ">
                    <path d="M7.68176939,8.36885961 C8.83713591,8.36885961 9.823268,7.96008635 10.6404328,7.14288334 C11.457674,6.32568033 11.866371,5.33954823 11.866371,4.18433439 C11.866371,3.02931138 11.457674,2.04314112 10.6404328,1.22574727 C9.82300083,0.408582423 8.83683057,0 7.68176939,0 C6.52670822,0 5.54038529,0.408582423 4.72322044,1.22574727 C3.90590293,2.04314112 3.49724417,3.02927321 3.49724417,4.18433439 C3.49724417,5.33954823 3.90590293,6.32568033 4.72322044,7.14288334 C5.54061429,7.96008635 6.52667005,8.36885961 7.68176939,8.36885961 Z" id="Path" fill-rule="nonzero"></path>
                    <path d="M15.3149898,13.7874657 C15.289494,13.4207148 15.2385786,13.0246895 15.1624346,12.5996569 C15.0861379,12.1746243 14.9897651,11.7806982 14.8735071,11.417306 C14.757249,11.054181 14.6010297,10.6999872 14.4048873,10.3548772 C14.2088211,10.0098054 13.9836332,9.71564895 13.7292091,9.47217887 C13.474785,9.22878512 13.1642928,9.03458919 12.7976946,8.88932392 C12.4306384,8.74409682 12.0256055,8.67134968 11.5824434,8.67134968 C11.5171389,8.67134968 11.3645455,8.74944026 11.1247776,8.90565959 C10.8852388,9.06187891 10.6145935,9.23626593 10.3131089,9.42885882 C10.0116625,9.62110821 9.61914854,9.79560974 9.13625412,9.95156189 C8.65313069,10.1077812 8.16828973,10.18591 7.68138772,10.18591 C7.19467655,10.18591 6.70979742,10.1077812 6.22675033,9.95156189 C5.7437414,9.79560974 5.35134197,9.62110821 5.04985738,9.42885882 C4.74841095,9.23626593 4.47784199,9.06191708 4.23815048,8.90565959 C3.99834446,8.74944026 3.84586555,8.67134968 3.78048473,8.67134968 C3.33736077,8.67134968 2.93232792,8.74409682 2.56550068,8.88932392 C2.19859709,9.03458919 1.88806682,9.22893778 1.63375718,9.47217887 C1.37952388,9.71564895 1.15429783,10.0098054 0.958231697,10.3548772 C0.762165568,10.6999872 0.605984412,11.0543337 0.489726396,11.417306 C0.373506548,11.7806982 0.277210102,12.1746243 0.200951561,12.5996569 C0.124616685,13.0246895 0.0737776575,13.4204477 0.0483199764,13.7874657 C0.0229004628,14.1544838 0.0102288734,14.5304331 0.0102288734,14.9154662 C0.0102288734,15.7870578 0.2754544,16.4755602 0.805714615,16.9804773 C1.33608933,17.4852035 2.04081291,17.7375284 2.919809,17.7375284 L12.4438443,17.7375284 C13.3227641,17.7375284 14.0274113,17.4852035 14.5578623,16.9804773 C15.0884279,16.4755602 15.3534626,15.7871723 15.3534626,14.9154662 C15.3533863,14.5304331 15.3407147,14.1544838 15.3149898,13.7874657 Z" id="Path" fill-rule="nonzero"></path>
                </g>
            </g>
        </g>
    </g>
</svg>